<?xml version="1.0" standalone="no"?>
<!DOCTYPE svg PUBLIC "-//W3C//DTD SVG 20010904//EN"
 "http://www.w3.org/TR/2001/REC-SVG-20010904/DTD/svg10.dtd">
<svg version="1.0" xmlns="http://www.w3.org/2000/svg"
 width="1313.000000pt" height="1313.000000pt" viewBox="0 0 1313.000000 1313.000000"
 preserveAspectRatio="xMidYMid meet">

<g transform="translate(0.000000,1313.000000) scale(0.100000,-0.100000)"
fill="#000000" stroke="none">
<path d="M2 9928 c0 -1762 5 -3131 9 -3043 90 1827 949 3547 2358 4719 1105
919 2478 1451 3911 1515 96 4 -1277 9 -3052 9 l-3228 2 2 -3202z"/>
<path d="M6870 13119 c2280 -101 4347 -1384 5456 -3385 424 -765 695 -1629
788 -2509 12 -113 14 269 15 2888 l1 3017 -3217 -2 c-1770 0 -3139 -5 -3043
-9z"/>
<path d="M6056 9375 c4 -8 -1 -17 -10 -21 -9 -3 -13 -10 -10 -15 6 -11 -20
-39 -36 -39 -6 0 -9 -4 -5 -9 3 -5 -4 -12 -15 -16 -16 -5 -18 -10 -10 -26 6
-10 19 -19 30 -19 20 0 35 -16 23 -23 -5 -3 -30 -7 -58 -8 -44 -4 -50 -2 -53
17 -2 11 4 27 13 34 23 19 18 32 -12 28 -27 -3 -28 -5 -33 -83 l-5 -80 145 -1
c143 0 232 -16 231 -39 -1 -6 -54 -10 -134 -11 -152 -1 -245 -18 -387 -71 -52
-20 -117 -39 -145 -42 -48 -6 -49 -7 -18 -14 35 -7 160 21 212 47 16 9 35 16
41 16 6 0 10 -55 10 -159 l0 -159 -62 -7 c-315 -33 -534 -112 -793 -284 -55
-36 -127 -80 -160 -96 -70 -36 -175 -113 -175 -128 0 -7 4 -7 12 1 25 25 28
11 3 -15 -39 -41 -95 -167 -95 -212 0 -56 36 -164 62 -187 13 -12 38 -27 56
-34 19 -7 40 -27 53 -50 19 -34 25 -37 65 -38 25 0 62 -9 84 -20 42 -20 58
-11 35 21 -13 18 -31 24 -20 7 3 -5 2 -10 -4 -10 -5 0 -13 5 -16 10 -3 6 -16
10 -29 10 -28 0 -89 20 -82 27 3 3 1 16 -4 29 -8 21 -7 24 11 24 16 0 19 4 14
18 -4 9 -10 27 -12 39 -3 11 -13 23 -22 26 -23 6 -28 97 -5 97 8 0 14 5 14 10
0 6 -5 10 -10 10 -6 0 -9 3 -8 8 1 4 -8 44 -20 90 -23 81 -23 84 -5 120 18 37
84 96 243 217 160 122 381 219 610 266 99 21 142 24 305 23 205 -1 303 -15
470 -70 151 -49 337 -161 418 -252 33 -37 0 -33 -50 6 -98 76 -187 130 -273
165 -357 145 -713 101 -1110 -138 -141 -85 -196 -130 -360 -291 -74 -73 -146
-138 -160 -143 l-25 -10 28 0 c15 -1 43 6 62 13 19 8 35 11 35 7 0 -5 -7 -12
-16 -15 -12 -5 -10 -10 13 -31 15 -13 23 -25 16 -25 -7 0 -10 -7 -6 -16 3 -8
12 -13 19 -10 8 3 14 1 14 -4 0 -6 8 -10 19 -10 10 0 24 -7 31 -15 11 -13 10
-14 -2 -10 -8 3 -21 -2 -29 -11 -9 -12 -10 -15 -1 -10 8 5 12 1 12 -11 1 -24
23 -52 54 -68 20 -10 42 -11 96 -4 115 16 115 5 0 -14 -58 -10 -118 -21 -134
-24 -18 -4 -27 -2 -23 4 4 6 -16 12 -51 16 -31 3 -66 8 -77 13 -16 5 -18 4 -8
-6 6 -7 38 -16 70 -20 32 -4 51 -8 43 -9 -12 -1 -15 -10 -12 -36 2 -19 7 -35
11 -35 4 0 15 -6 25 -13 19 -14 27 -42 56 -197 28 -154 47 -171 204 -197 50
-8 100 -16 111 -19 12 -2 25 -17 32 -34 11 -30 10 -32 -23 -52 -19 -11 -34
-28 -34 -38 0 -11 -4 -22 -10 -25 -5 -3 -10 -15 -10 -26 0 -10 -4 -19 -10 -19
-5 0 -7 -7 -4 -15 5 -11 2 -14 -12 -9 -11 4 -16 3 -11 -1 4 -5 0 -16 -9 -26
-10 -11 -15 -28 -12 -44 3 -14 1 -25 -6 -25 -6 0 -5 -4 3 -9 14 -9 7 -51 -8
-51 -5 0 -7 -33 -5 -72 3 -40 4 -85 4 -99 0 -17 8 -30 25 -39 14 -7 23 -16 20
-18 -3 -3 6 -20 20 -38 14 -18 25 -39 25 -48 0 -8 4 -17 9 -21 5 -3 12 -18 16
-34 4 -17 16 -33 32 -40 36 -17 83 9 115 62 62 106 110 113 251 41 16 -8 35
-14 42 -14 7 0 15 -6 18 -13 4 -10 -16 -18 -67 -30 -40 -9 -80 -17 -90 -17
-12 0 -16 -5 -12 -15 3 -8 -2 -21 -10 -30 -9 -8 -11 -15 -6 -15 10 0 21 -41
31 -121 1 -4 19 -9 42 -13 34 -5 40 -10 34 -24 -14 -33 -17 -62 -7 -62 6 0 14
9 17 21 5 13 14 19 28 17 32 -5 30 -47 -5 -76 -15 -13 -25 -28 -22 -34 4 -6
-1 -8 -15 -3 -11 3 -29 2 -38 -4 -10 -6 -14 -11 -8 -11 5 0 -1 -7 -13 -16 -15
-10 -32 -14 -49 -9 -14 3 -38 1 -53 -5 -23 -10 -35 -8 -69 9 -22 12 -45 21
-51 21 -5 0 -33 16 -61 36 -28 19 -53 33 -56 31 -5 -6 114 -107 125 -107 4 0
19 -11 33 -24 14 -13 40 -31 57 -40 18 -9 32 -21 32 -27 0 -6 5 -7 11 -3 8 4
7 9 -2 15 -8 5 -9 9 -3 9 6 0 19 -9 29 -20 16 -18 16 -20 2 -20 -10 0 -14 -5
-11 -15 4 -8 10 -13 14 -10 4 3 10 -7 13 -22 5 -30 -29 -93 -51 -93 -7 0 -10
-5 -7 -10 4 -6 10 -8 13 -6 10 6 8 -36 -2 -52 -9 -15 -68 -16 -84 0 -6 6 -15
9 -18 5 -8 -8 36 -46 54 -47 6 0 12 -8 12 -18 0 -11 12 -24 26 -31 15 -6 24
-15 20 -18 -11 -11 -77 -13 -71 -3 4 6 -3 6 -19 0 -14 -5 -26 -6 -26 -2 0 4
-4 1 -9 -6 -4 -7 -22 -14 -39 -14 -18 -1 -32 -5 -32 -10 0 -4 -7 -8 -16 -8 -8
0 -13 -4 -9 -9 3 -5 -6 -11 -21 -13 l-26 -3 21 -24 c25 -28 26 -40 6 -47 -8
-4 -12 -10 -9 -15 5 -9 -11 -13 -31 -9 -5 1 -7 -2 -3 -6 4 -4 -2 -15 -13 -25
-28 -25 -33 -65 -11 -97 10 -15 18 -34 17 -42 -2 -20 30 -55 83 -92 23 -16 42
-35 42 -43 0 -8 9 -19 20 -25 20 -11 27 -40 13 -54 -4 -4 -8 -15 -8 -24 0 -14
-10 -17 -62 -16 -44 1 -61 -2 -56 -10 4 -6 -1 -5 -10 3 -10 8 -16 15 -14 17 2
2 -24 32 -57 67 -34 34 -70 81 -80 102 -27 56 -25 53 -87 146 -30 46 -68 108
-84 137 -25 47 -31 52 -62 52 -20 0 -32 4 -28 10 3 6 15 10 26 10 10 0 19 4
19 9 0 6 -16 7 -36 4 -29 -5 -36 -3 -32 8 2 8 14 15 26 17 34 5 26 20 -9 18
-28 -1 -34 5 -66 64 -20 36 -55 94 -77 130 -50 78 -81 142 -112 233 -21 62
-22 72 -9 97 9 17 33 35 67 50 29 12 64 32 78 42 l25 20 -45 -7 c-130 -19
-164 -29 -195 -57 -26 -22 -52 -31 -121 -44 -53 -9 -112 -27 -146 -45 -31 -16
-86 -36 -122 -44 -36 -9 -96 -26 -134 -39 -37 -13 -83 -27 -102 -31 -19 -4
-66 -18 -105 -31 -81 -27 -236 -57 -380 -74 -117 -14 -186 -41 -178 -70 3 -12
-3 -22 -16 -30 -12 -6 -19 -15 -16 -21 4 -5 -1 -9 -10 -9 -9 0 -28 -12 -42
-26 -24 -24 -25 -24 -20 -5 6 26 -111 -98 -170 -179 -82 -113 -113 -196 -139
-370 -8 -58 -26 -145 -40 -195 -44 -163 -102 -398 -119 -485 -9 -47 -23 -114
-32 -150 -8 -36 -29 -128 -45 -205 -16 -77 -30 -147 -32 -155 -2 -8 0 -22 5
-32 10 -19 -7 -78 -27 -94 -8 -6 -12 -18 -9 -25 3 -8 -2 -45 -11 -84 -30 -131
-30 -128 -4 -120 16 5 21 4 18 -6 -3 -8 -13 -13 -22 -11 -14 3 -17 -5 -15 -46
2 -46 -23 -112 -43 -112 -14 0 -9 -37 7 -50 16 -14 20 -65 6 -74 -5 -4 -8 -14
-6 -24 2 -9 4 -21 4 -26 1 -4 16 -5 33 -1 18 4 85 8 148 10 l115 2 -95 -7
c-146 -10 -210 -26 -247 -63 -18 -17 -33 -36 -33 -41 0 -18 52 -71 96 -98 22
-15 49 -35 59 -45 10 -10 20 -17 22 -15 6 4 126 -59 142 -76 13 -12 15 -35 13
-111 -2 -53 -8 -100 -13 -105 -5 -6 -9 -35 -8 -65 0 -46 2 -52 10 -32 5 13 7
32 4 42 -4 11 -2 19 4 19 7 0 11 -23 11 -57 0 -36 -4 -53 -9 -45 -14 23 -21
-24 -19 -133 l1 -100 6 82 c11 153 20 95 19 -126 -1 -121 2 -224 5 -228 4 -3
7 34 8 83 1 243 11 729 15 733 2 2 4 -40 4 -94 0 -54 3 -96 6 -93 3 4 5 50 5
103 -1 84 2 96 16 93 22 -4 41 -36 27 -46 -17 -11 -23 -72 -7 -72 8 0 13 -13
13 -35 0 -19 -4 -35 -10 -35 -6 0 -10 -64 -10 -172 0 -119 3 -168 10 -158 12
18 5 -170 -9 -238 -5 -25 -5 -42 1 -42 5 0 7 -3 4 -8 -6 -10 15 -37 42 -51 13
-7 22 -15 19 -17 -2 -2 -17 2 -33 11 l-29 15 -3 -53 c-4 -63 14 -133 37 -141
43 -15 116 -66 94 -66 -6 0 -13 3 -15 8 -6 13 -88 53 -98 47 -6 -4 -10 -71
-10 -158 -1 -136 -2 -150 -15 -133 -8 11 -15 14 -15 8 0 -7 -7 -12 -15 -12 -8
0 -15 -6 -16 -12 0 -7 -4 -4 -9 7 -13 29 -12 35 5 35 11 0 15 12 15 51 0 31
-4 48 -10 44 -6 -4 -10 6 -10 22 0 22 2 25 10 13 8 -13 10 -13 10 1 0 9 -6 19
-14 22 -10 4 -13 22 -11 65 1 33 -1 66 -6 73 -6 9 -9 -1 -10 -31 -3 -91 -6
-121 -13 -127 -3 -3 -6 15 -6 40 0 26 -5 47 -10 47 -6 0 -10 -54 -9 -146 0
-80 -2 -149 -5 -152 -3 -3 -7 51 -7 119 -3 238 -5 288 -12 295 -4 4 -7 -34 -7
-84 0 -50 -4 -94 -10 -97 -5 -3 -9 2 -8 12 0 10 0 35 0 57 -2 29 -5 37 -17 32
-16 -6 -18 -1 -15 62 1 32 -2 42 -14 42 -9 0 -16 -7 -16 -15 0 -8 -7 -15 -15
-15 -8 0 -15 -7 -15 -15 0 -8 4 -15 9 -15 16 0 41 -30 40 -48 0 -14 -2 -14 -6
-2 -9 22 -32 42 -42 36 -5 -3 -12 11 -16 32 -6 31 -9 34 -15 17 -6 -14 -9 -2
-9 38 -1 31 -5 57 -9 57 -14 0 -29 55 -21 77 9 23 -4 49 -20 39 -6 -4 -11 -18
-11 -32 0 -13 -4 -24 -10 -24 -5 0 -10 14 -10 30 0 17 -4 30 -10 30 -5 0 -10
26 -11 58 0 37 -3 50 -8 37 -7 -16 -9 -14 -16 15 -7 30 -9 31 -12 12 -3 -12
-8 -20 -13 -17 -4 3 -6 15 -2 27 3 14 1 19 -6 14 -7 -4 -11 -29 -10 -57 0 -27
-2 -53 -6 -56 -3 -3 -6 18 -7 48 -1 55 -2 56 -14 5 -5 -23 -8 -27 -16 -15 -7
11 -9 11 -9 0 0 -10 -3 -11 -13 -2 -8 6 -16 9 -19 6 -2 -3 -9 15 -15 40 -9 41
-9 43 8 34 11 -5 19 -14 19 -18 0 -5 7 -11 15 -15 12 -4 15 3 15 32 0 28 -3
33 -10 22 -8 -12 -10 -12 -10 5 0 16 -2 17 -10 5 -5 -8 -11 -12 -14 -10 -13
13 -8 793 5 785 5 -4 9 26 9 72 0 43 2 130 5 193 4 76 2 108 -4 95 -9 -18 -10
-18 -10 7 -1 20 -6 26 -21 25 -18 -1 -20 -9 -21 -87 -1 -47 -2 -121 -4 -165
-1 -44 -3 -143 -5 -220 -1 -108 -4 -133 -12 -110 -6 19 -7 182 -3 443 5 362 4
412 -9 412 -8 0 -18 4 -21 10 -4 6 2 7 17 1 16 -5 25 -19 29 -42 4 -19 4 43 1
137 -3 116 -1 177 6 190 11 18 11 18 12 0 0 -12 5 -16 15 -12 12 4 15 -5 17
-52 l1 -57 7 60 c5 43 7 50 9 25 l2 -35 14 30 c7 17 14 24 14 18 1 -7 8 -13
16 -13 8 0 15 -6 15 -12 0 -9 4 -8 10 2 7 12 10 12 10 1 0 -7 6 -11 15 -7 9 3
15 0 15 -9 0 -7 4 -17 10 -20 6 -3 7 1 4 9 -3 9 -1 16 5 16 6 0 12 -15 12 -32
2 -31 2 -31 6 -5 3 19 10 27 24 27 11 0 19 -7 19 -16 0 -13 3 -14 14 -5 8 7
16 8 18 3 1 -5 13 -13 26 -16 17 -6 22 -3 22 12 0 18 -39 36 -109 49 -14 2
-66 19 -115 38 -50 18 -131 45 -181 60 -345 103 -778 253 -1000 345 -94 39
-260 100 -274 100 -10 0 -17 -98 -14 -180 5 -101 2 -200 -6 -225 -8 -25 -9
-19 -10 40 -1 39 -4 140 -8 226 l-6 157 -39 12 c-47 13 -54 10 -36 -19 13 -22
38 -29 38 -10 0 5 5 7 10 4 6 -3 10 -45 10 -93 l0 -87 -42 0 -43 0 2 110 c1
61 4 117 8 126 3 10 2 20 -4 24 -7 4 -11 53 -11 129 0 141 5 150 81 165 36 7
22 9 -71 10 -63 0 -121 -3 -129 -8 -12 -8 -15 -37 -14 -140 1 -146 3 -143 -69
-113 -24 10 -91 31 -149 47 -59 15 -112 31 -119 35 -6 4 -27 65 -46 136 -123
465 -199 975 -217 1454 -2 41 -4 -1364 -5 -3122 l-2 -3198 3023 2 c1662 1
3004 3 2982 5 -785 68 -1577 287 -2294 634 -259 125 -621 330 -621 351 0 5 -4
7 -8 4 -12 -7 -232 143 -232 160 0 10 12 14 43 14 57 0 87 -9 87 -27 0 -8 4
-12 9 -8 14 8 61 -39 61 -61 0 -16 2 -17 11 -4 8 11 12 12 16 3 2 -7 11 -13
18 -13 8 0 18 -6 22 -14 10 -17 53 -31 53 -17 0 6 6 11 14 11 30 0 49 142 26
195 -11 25 -10 28 -16 -80 -3 -49 -8 -92 -10 -94 -2 -2 -4 47 -4 110 0 77 -3
109 -10 99 -5 -8 -10 -41 -10 -72 0 -32 -3 -58 -7 -58 -5 0 -9 56 -11 125 -2
100 -6 133 -23 172 -12 26 -27 68 -35 93 -7 25 -23 77 -34 115 -12 39 -23 88
-26 110 -3 22 -11 75 -19 119 -8 43 -15 104 -15 136 0 57 -39 361 -60 470 -19
98 -24 302 -10 432 12 115 23 148 49 148 5 0 22 11 37 25 25 23 52 26 38 3 -3
-5 20 7 51 28 45 30 71 40 119 45 104 11 385 -15 454 -42 13 -5 31 -9 42 -9
10 0 28 -13 39 -28 18 -26 19 -32 6 -68 -8 -23 -10 -45 -5 -54 5 -9 5 -22 0
-30 -8 -12 -9 -31 -14 -180 -4 -144 -6 -155 -29 -181 -12 -14 -31 -29 -42 -33
-11 -3 -31 -16 -45 -27 l-25 -20 42 20 c23 12 65 30 94 41 113 45 428 255 612
408 271 226 507 459 507 501 0 33 40 136 73 184 17 27 60 70 95 97 60 45 65
47 102 39 l40 -9 82 87 c172 181 207 220 277 308 78 96 109 150 148 255 13 36
48 119 78 185 55 123 135 336 155 414 20 76 60 150 94 170 50 31 140 52 213
51 175 -3 268 0 297 9 43 15 359 71 396 71 20 0 42 -11 69 -35 21 -19 41 -35
45 -35 3 0 25 -12 49 -27 59 -37 174 -100 227 -124 86 -39 130 -86 149 -158 6
-19 18 -27 61 -38 59 -15 84 -33 107 -77 13 -24 13 -38 3 -86 -11 -54 -11 -58
14 -95 36 -53 41 -77 25 -143 -7 -31 -12 -76 -11 -99 7 -139 4 -182 -26 -343
-18 -96 -38 -198 -44 -227 -11 -50 -11 -53 23 -108 19 -32 33 -62 31 -69 -2
-6 0 -8 4 -3 12 12 51 -62 69 -132 9 -35 23 -80 30 -100 8 -20 16 -46 18 -59
2 -13 9 -27 16 -31 9 -6 7 -10 -7 -13 -17 -5 -19 -13 -17 -54 2 -26 -1 -56 -6
-65 -6 -11 -5 -27 1 -43 5 -15 6 -26 0 -26 -9 0 -1 -71 9 -80 10 -9 10 -70 0
-70 -5 0 -9 -8 -7 -17 2 -13 -5 -19 -25 -21 -32 -4 -31 -25 1 -30 12 -2 22 -8
22 -14 0 -6 -9 -8 -19 -5 -12 3 -22 -1 -25 -9 -3 -8 -1 -14 5 -14 5 0 7 -11 3
-25 -4 -16 -2 -25 6 -25 7 0 6 -6 -4 -16 -20 -20 -20 -34 -1 -34 8 0 15 -4 15
-10 0 -5 -5 -10 -10 -10 -6 0 -9 -3 -8 -8 2 -12 -14 -42 -21 -38 -4 3 -8 -9
-9 -25 -2 -23 2 -29 18 -29 13 0 18 4 15 11 -4 6 2 5 14 -3 27 -16 27 -28 0
-28 -12 0 -19 -5 -16 -12 2 -7 11 -12 20 -10 8 1 18 -2 22 -8 4 -6 -6 -10 -24
-10 -17 0 -31 -4 -31 -10 0 -5 8 -10 18 -10 15 0 19 -9 19 -52 1 -29 -3 -60
-9 -71 -7 -14 -6 -22 7 -31 15 -11 15 -13 1 -25 -8 -7 -13 -18 -10 -25 3 -8
-2 -21 -11 -30 -17 -16 -11 -21 25 -17 13 2 13 1 0 -8 -8 -6 -15 -15 -15 -21
0 -6 -7 -15 -15 -20 -12 -8 -12 -10 5 -11 11 0 14 -3 8 -6 -19 -7 -16 -23 4
-23 13 0 14 -3 5 -12 -17 -17 -15 -26 10 -34 21 -6 20 -7 -8 -19 -26 -12 -26
-13 -7 -14 26 -1 50 -41 56 -93 2 -19 11 -49 19 -66 13 -26 14 -32 2 -36 -18
-7 -18 -26 0 -26 22 0 41 -29 28 -42 -14 -14 -16 -32 -3 -23 6 3 15 -3 20 -14
6 -11 22 -21 36 -23 14 -2 25 -5 24 -8 -1 -3 6 -22 14 -43 11 -25 12 -37 5
-37 -7 0 -4 -6 7 -13 10 -8 15 -19 11 -25 -4 -6 2 -19 13 -28 10 -9 17 -23 14
-30 -3 -8 2 -17 11 -20 13 -5 14 -10 5 -20 -12 -15 -4 -34 16 -34 17 0 27 -27
13 -36 -7 -5 -8 -2 -3 6 5 9 4 11 -3 6 -9 -5 -8 -13 1 -28 16 -29 57 -68 71
-68 6 0 3 -5 -7 -11 -14 -8 -16 -18 -11 -45 5 -25 3 -34 -7 -34 -8 0 -25 -3
-38 -7 -17 -4 -22 -3 -17 5 4 8 0 12 -12 12 -10 0 -27 9 -37 20 -10 11 -22 17
-26 14 -5 -3 -9 0 -9 6 0 6 -4 9 -9 5 -16 -9 -106 54 -111 78 -3 12 -20 28
-38 36 -24 11 -33 23 -38 48 -9 45 -32 43 -36 -4 -4 -52 -26 -49 -58 7 -17 32
-26 40 -28 27 -4 -18 -11 -21 -36 -11 -12 5 -16 21 -16 67 0 67 -11 70 -18 4
-2 -23 -4 -43 -5 -44 -1 -1 -22 4 -45 10 l-43 11 7 63 c3 35 3 103 -2 151 l-8
87 -8 -75 c-4 -41 -5 -105 -2 -142 7 -76 3 -79 -58 -53 l-35 14 -1 156 -1 156
36 -7 c23 -4 34 -3 30 3 -4 6 -21 13 -38 17 -28 5 -30 8 -24 36 5 24 3 30 -11
30 -9 0 -15 -3 -11 -6 3 -3 2 -17 -3 -30 -5 -13 -6 -24 -2 -24 6 0 5 -311 -1
-317 -1 0 -24 4 -50 11 -26 7 -45 15 -41 19 4 4 7 73 8 154 l1 148 35 -2 35
-3 -31 14 c-17 8 -34 22 -38 31 -5 15 -9 15 -22 4 -14 -11 -19 -9 -35 11 -18
22 -20 23 -17 5 2 -11 16 -26 31 -33 19 -9 26 -19 23 -30 -3 -9 -7 -79 -8
-154 l-1 -138 -26 6 -26 5 28 -16 27 -16 0 -117 c0 -64 3 -126 5 -137 3 -11 1
-26 -4 -34 -7 -11 -15 -10 -45 4 -35 17 -36 18 -37 79 -1 33 -3 100 -4 149 -2
75 0 87 14 87 13 0 13 2 2 9 -11 7 -11 15 0 45 11 29 11 41 1 56 -7 11 -12 52
-12 91 0 64 -2 70 -17 63 -21 -9 -121 -21 -244 -30 -68 -5 -92 -3 -116 9 -67
35 -153 218 -173 367 -5 36 -15 99 -23 140 -8 41 -13 78 -10 83 2 4 -1 22 -7
41 -6 18 -11 59 -11 90 -1 31 -5 59 -10 62 -5 3 -9 21 -9 39 0 19 -4 54 -10
77 -5 24 -14 75 -21 113 -18 108 -46 203 -74 251 -14 24 -23 49 -20 55 4 5 2
16 -4 23 -6 7 -13 39 -17 72 -4 32 -10 66 -14 74 -5 8 -11 36 -15 62 -7 44 -5
48 35 92 36 39 41 50 35 73 -3 16 -11 57 -16 93 -5 36 -13 88 -17 115 l-8 50
-38 -60 c-22 -33 -59 -90 -82 -128 -91 -141 -163 -197 -254 -197 -45 0 -55 -4
-95 -41 -25 -23 -77 -79 -115 -125 -79 -92 -107 -106 -160 -79 -25 13 -38 14
-61 6 -50 -17 -76 4 -44 36 14 14 14 17 1 32 -8 9 -24 26 -36 39 -11 12 -28
22 -39 22 -20 0 -85 66 -103 106 -15 32 -24 30 -31 -4 -7 -33 -1 -78 18 -145
19 -63 12 -79 -29 -72 -29 6 -33 3 -49 -29 -9 -20 -22 -36 -27 -36 -6 0 1 23
17 50 24 43 26 52 13 60 -12 7 -20 0 -37 -33 -31 -60 -56 -84 -113 -104 -28
-10 -50 -21 -50 -24 0 -4 8 -17 18 -30 l19 -22 46 33 c26 18 49 31 51 29 7 -7
-17 -33 -47 -52 -15 -10 -27 -22 -27 -28 0 -5 21 -19 48 -30 26 -11 54 -24 62
-28 8 -4 40 -14 70 -21 30 -7 65 -16 78 -21 13 -5 56 -9 97 -9 41 0 75 -4 75
-9 0 -35 -378 -587 -565 -825 -23 -28 -79 -104 -125 -169 -113 -156 -116 -160
-184 -247 -64 -81 -215 -240 -229 -240 -5 0 -5 10 -1 23 l6 22 -24 -22 c-13
-13 -32 -23 -42 -23 -28 0 -61 -21 -47 -30 9 -5 1 -18 -26 -44 -35 -33 -52
-41 -77 -37 -5 1 -6 -5 -3 -14 4 -8 2 -15 -4 -15 -6 0 -7 -4 -4 -10 4 -6 -4
-9 -17 -7 -12 1 -23 -3 -23 -10 0 -14 -40 -53 -55 -53 -5 0 -10 -4 -10 -9 0
-5 -9 -12 -19 -16 -11 -3 -23 -15 -26 -25 -4 -11 -17 -23 -31 -26 -14 -4 -38
-18 -53 -33 -16 -14 -52 -44 -80 -66 -28 -22 -51 -45 -51 -51 0 -7 -12 -15
-27 -19 -15 -3 -34 -15 -43 -25 -10 -11 -41 -25 -71 -31 -58 -12 -90 -26 -101
-42 -3 -6 -26 -10 -51 -10 -55 1 -70 -20 -29 -41 54 -27 139 -39 482 -66 129
-10 193 -15 485 -40 286 -25 415 -40 452 -54 28 -11 105 -16 298 -20 257 -6
475 -14 935 -35 538 -25 961 -36 878 -24 -35 5 -37 23 -4 23 14 0 27 4 31 9 3
6 27 10 53 10 53 0 78 4 88 14 9 9 131 9 202 0 37 -4 49 -9 40 -15 -12 -9 14
-4 52 10 13 5 13 3 1 -11 -12 -16 -9 -17 40 -18 30 -1 59 -1 65 0 7 1 14 -7
17 -18 5 -20 47 -33 112 -33 22 0 67 0 100 0 66 -1 140 0 198 1 22 1 45 -5 53
-14 14 -13 12 -15 -15 -15 -16 0 -33 -4 -36 -10 -3 -5 -48 -11 -98 -12 l-92
-2 83 -3 c52 -3 104 2 135 10 29 8 75 13 102 12 l50 -3 -45 7 c-53 9 -46 13
36 15 46 2 61 -1 61 -11 0 -8 -6 -12 -12 -9 -7 2 -18 0 -26 -5 -9 -5 21 -9 81
-9 55 0 89 4 82 9 -8 4 -36 7 -63 5 -27 -2 -49 0 -49 5 0 5 20 9 44 9 24 0 53
5 64 11 12 6 33 11 49 12 26 1 25 2 -12 14 l-40 13 60 1 c34 1 65 -3 71 -9 6
-6 40 -6 89 -2 l80 8 -110 7 c-341 21 -463 28 -680 37 -132 6 -310 15 -395 20
-85 6 -238 10 -341 10 -170 0 -192 2 -270 26 -62 18 -140 30 -299 44 -118 11
-262 24 -320 29 -308 29 -672 61 -687 61 -9 0 -14 3 -10 6 3 3 104 10 224 15
120 5 317 14 438 20 209 11 389 14 940 19 132 1 308 6 390 11 210 13 576 -4
654 -31 31 -10 108 -31 171 -45 63 -15 142 -33 175 -41 33 -8 84 -19 114 -25
30 -6 66 -19 80 -30 23 -17 45 -19 206 -20 99 -1 333 2 520 6 l340 6 -45 -26
c-89 -52 -307 -165 -430 -221 -116 -53 -130 -57 -192 -55 -68 2 -85 -8 -50
-28 15 -9 15 -12 2 -21 -21 -14 -40 -12 -46 4 -3 8 -16 17 -30 20 -13 4 -24
11 -24 16 0 6 -33 10 -75 10 -43 0 -75 -4 -75 -10 0 -5 6 -10 13 -11 6 0 1 -5
-12 -10 -16 -6 -28 -6 -37 2 -11 9 -21 9 -41 0 -32 -13 -85 -11 -95 3 -3 5
-36 10 -72 11 -37 1 -69 5 -73 8 -3 4 -16 7 -28 7 -12 0 -25 3 -29 8 -4 4 -29
7 -54 8 -216 4 -236 6 -213 15 12 5 80 13 150 18 112 7 117 8 46 9 -76 2 -260
-20 -272 -32 -10 -9 75 -24 150 -25 34 -1 56 -21 22 -21 -18 0 -19 -17 -2 -34
20 -20 387 -42 387 -23 0 5 17 7 39 3 29 -4 40 -2 44 8 5 12 29 13 129 9 68
-3 126 -9 131 -12 14 -13 -281 -123 -539 -201 -449 -136 -820 -208 -1354 -263
-19 -2 1321 -5 2978 -5 l3012 -2 -1 3008 c-1 2579 -3 2989 -15 2882 -53 -489
-146 -924 -301 -1397 l-56 -173 -811 -1 c-446 0 -889 0 -983 -1 -96 0 -173 -4
-173 -9 0 -5 17 -9 38 -9 20 -1 63 -2 95 -4 33 -2 53 1 45 5 -10 7 -9 9 5 9 9
0 17 -5 17 -10 0 -7 42 -10 115 -9 77 1 115 5 115 12 0 7 4 7 12 -1 15 -15 42
-16 32 -1 -9 15 78 1 88 -15 5 -7 8 -5 8 7 0 14 9 17 58 16 45 -1 50 -3 27 -8
-16 -4 -29 -12 -27 -19 1 -7 -2 -12 -8 -12 -5 0 -10 -5 -10 -11 0 -6 11 -4 28
5 15 8 35 17 45 20 10 3 16 9 13 14 -6 11 47 9 55 -2 4 -4 85 -9 180 -10 96
-2 182 -6 192 -11 9 -4 23 -3 30 3 13 11 42 10 70 -2 9 -5 30 -5 45 -1 15 4
60 9 100 11 54 3 71 1 70 -8 -2 -8 8 -13 27 -13 20 0 29 4 27 14 -2 10 4 12
20 7 13 -3 36 -6 51 -6 19 0 26 -4 21 -11 -5 -9 6 -10 42 -6 27 4 56 2 64 -3
10 -6 22 -4 37 6 13 8 23 11 23 7 0 -5 4 -1 10 7 7 12 12 12 34 1 15 -8 32
-10 43 -6 22 10 54 7 70 -7 7 -5 17 -7 22 -4 14 9 7 -20 -21 -90 -22 -55 -25
-59 -53 -56 -17 1 -134 3 -262 4 -205 1 -235 -1 -258 -16 -20 -13 -37 -16 -64
-11 -20 4 -59 8 -86 9 -28 1 -56 6 -63 10 -7 4 -29 6 -50 5 -33 -2 -314 -1
-1237 7 -159 1 -306 3 -325 3 -19 1 -46 1 -60 1 -14 -1 -50 0 -81 2 -36 2 -66
-2 -84 -12 -22 -12 -29 -12 -32 -2 -5 13 -33 17 -33 4 0 -5 -36 -7 -81 -6 -44
1 -106 0 -137 -4 l-57 -6 35 -9 c20 -5 392 -12 855 -14 451 -3 921 -7 1045 -8
362 -5 373 -5 408 1 18 4 38 2 45 -4 13 -11 264 -9 363 3 42 5 63 4 68 -4 4
-6 27 -11 52 -11 48 0 50 -3 30 -39 -8 -15 -16 -20 -20 -13 -11 18 -174 13
-181 -5 -4 -11 -9 -12 -18 -5 -6 5 -49 10 -95 10 -46 1 -91 4 -101 7 -10 3
-38 1 -62 -5 -53 -14 -131 -13 -140 1 -7 13 -59 20 -59 8 0 -4 8 -10 18 -12
16 -4 16 -5 -1 -6 -10 0 -25 6 -33 14 -9 8 -21 15 -27 15 -7 -1 -5 -6 4 -13 9
-7 14 -17 12 -23 -10 -30 25 -35 219 -30 163 5 221 8 325 15 6 1 19 8 28 17
12 13 19 14 28 5 6 -6 28 -11 49 -11 46 0 51 -20 6 -21 -30 0 -31 -1 -10 -9
12 -5 22 -14 22 -19 0 -19 -112 -256 -126 -267 -7 -6 -11 -14 -8 -17 4 -3 -24
-64 -61 -134 -296 -560 -621 -1019 -1041 -1468 -152 -163 -283 -290 -444 -430
-184 -160 -228 -196 -234 -187 -3 5 -4 205 -2 443 5 529 -1 504 131 570 53 26
70 30 145 29 109 0 191 10 184 22 -3 5 -9 48 -12 96 l-7 87 -60 -1 c-33 0
-100 -6 -150 -12 -51 -7 -176 -11 -290 -9 -110 1 -180 -1 -155 -4 50 -7 46 -7
-125 -14 -120 -4 -240 -32 -257 -59 -4 -6 -8 -30 -8 -53 0 -23 -5 -45 -10 -48
-6 -4 -9 -14 -6 -23 2 -10 7 -34 10 -54 6 -34 5 -37 -21 -40 l-28 -3 -12 -175
c-23 -346 -24 -360 -43 -360 -5 0 -7 6 -4 13 6 17 -21 41 -36 32 -8 -5 -8 -11
1 -21 9 -11 9 -20 -1 -38 -13 -26 -7 -46 15 -46 8 0 17 -6 21 -12 4 -7 4 -10
0 -6 -4 3 -16 -2 -27 -13 -17 -17 -18 -22 -6 -39 8 -11 17 -17 22 -12 4 4 5 0
3 -8 -3 -8 1 -27 9 -42 16 -32 2 -38 -18 -8 -14 19 -15 19 -37 2 -15 -12 -25
-33 -29 -60 -6 -45 -20 -63 -33 -42 -4 7 -30 15 -58 18 -48 4 -50 6 -54 37 -2
18 -1 44 3 59 8 29 -8 47 -22 25 -5 -8 -9 -31 -9 -51 0 -20 -4 -39 -9 -42 -14
-9 -123 22 -133 36 -4 7 -5 24 -2 38 11 45 10 80 -2 80 -6 0 -15 -24 -20 -52
-9 -51 -10 -53 -39 -50 -16 2 -45 10 -62 17 -30 13 -33 18 -33 59 0 25 5 48
10 51 14 9 2 25 -18 25 -13 0 -17 -9 -18 -37 0 -69 -5 -73 -67 -59 -78 18 -79
19 -71 87 5 49 4 59 -9 59 -10 0 -13 -6 -10 -18 2 -10 0 -34 -5 -53 -7 -28
-12 -33 -33 -30 -13 1 -41 12 -62 22 l-37 19 6 55 c6 47 4 55 -10 55 -13 0
-16 -10 -16 -50 0 -58 -5 -60 -74 -31 l-45 20 6 52 c5 42 3 51 -8 47 -8 -3
-15 -22 -17 -46 -4 -48 -12 -50 -77 -28 -40 14 -40 15 -40 67 0 33 -5 54 -12
56 -9 3 -13 -9 -13 -41 0 -24 -4 -47 -9 -51 -5 -3 -31 3 -58 13 l-48 18 3 52
c3 41 0 52 -12 52 -10 0 -16 -13 -18 -42 -2 -29 -8 -43 -17 -43 -11 0 -14 20
-16 85 -1 47 -6 97 -10 113 -6 24 -4 27 16 28 18 1 19 3 6 6 -20 5 -47 63 -47
102 0 14 -9 55 -20 91 -11 36 -25 97 -31 135 -6 39 -15 99 -21 135 -5 36 -12
81 -14 100 -2 19 -13 85 -24 145 -11 61 -31 191 -46 290 -14 99 -27 184 -28
189 -1 8 145 45 297 76 65 13 68 16 56 48 -6 15 -24 77 -39 137 -45 174 -143
493 -179 578 -9 23 -23 87 -30 142 -25 195 -47 297 -101 464 -16 52 -30 113
-30 136 0 49 -40 265 -70 371 -33 122 -73 190 -164 279 -66 65 -103 91 -195
140 -62 32 -130 72 -150 88 -82 66 -134 83 -296 95 -82 7 -193 21 -245 32 -52
11 -123 20 -158 20 -95 0 -302 53 -387 99 -60 32 -158 65 -257 85 -24 6 -26 9
-21 48 6 51 20 74 93 161 49 59 136 187 126 187 -2 0 -27 -31 -57 -70 -29 -38
-57 -70 -62 -70 -4 0 -5 -4 -2 -10 3 -5 -1 -10 -9 -10 -9 0 -16 -4 -16 -8 0
-5 -11 -15 -25 -22 -14 -7 -23 -15 -20 -18 2 -3 13 1 22 9 15 11 15 10 -1 -9
-11 -12 -24 -22 -31 -22 -6 0 -17 -11 -23 -25 -6 -14 -18 -25 -27 -25 -9 0
-15 -9 -15 -21 0 -19 -1 -19 -17 -3 -16 16 -16 18 5 32 12 8 22 20 22 27 0 8
6 16 13 18 6 3 -4 6 -23 7 -31 0 -33 2 -15 12 29 16 37 31 22 43 -18 15 -20
45 -2 45 8 0 15 5 15 10 0 6 -5 10 -11 10 -5 0 -8 4 -4 10 8 13 36 0 33 -15
-2 -8 1 -15 6 -17 5 -2 10 7 11 20 1 15 -4 22 -17 22 -11 0 -16 5 -13 10 4 6
1 9 -7 8 -7 -2 -13 4 -13 12 0 9 9 15 24 15 13 0 26 6 28 13 3 7 -1 10 -11 6
-11 -4 -16 -1 -16 11 0 9 4 14 9 10 6 -3 14 3 20 12 9 15 12 16 20 4 7 -11 10
-10 15 5 3 11 17 31 31 46 25 27 27 47 10 89 -3 10 -1 20 5 24 9 6 9 9 -1 15
-9 6 -10 12 -1 22 7 9 8 19 2 28 -7 11 -4 16 12 20 20 5 22 11 19 63 -2 40 1
57 10 57 7 0 9 3 6 7 -4 3 -2 12 4 19 8 10 5 12 -15 8 -13 -2 -27 0 -30 5 -3
5 2 8 12 7 12 -1 16 5 14 19 -2 11 -8 21 -13 23 -13 5 15 30 37 34 10 2 23 8
27 13 5 6 7 4 4 -5 -2 -8 -9 -15 -14 -15 -6 0 -15 -3 -19 -7 -9 -9 28 -11 50
-2 9 3 14 10 11 14 -3 5 -1 12 5 15 8 5 7 11 -1 21 -10 12 -9 17 1 27 10 10
12 9 7 -5 -11 -30 20 -9 33 23 7 16 17 29 22 29 5 0 7 4 4 8 -3 5 5 8 17 8 13
-1 22 5 22 14 1 21 17 46 35 53 12 4 11 6 -3 6 -10 1 -15 6 -12 11 14 22 -25
8 -44 -15 -14 -19 -34 -28 -73 -34 -58 -10 -78 -6 -32 5 79 19 137 67 149 124
4 17 11 30 16 30 10 0 -1 -64 -13 -68 -17 -7 -7 -20 12 -15 23 6 44 38 35 53
-4 6 -2 25 3 43 6 17 13 44 16 60 4 15 13 27 21 27 13 0 14 -10 10 -57 -4 -32
-8 -76 -10 -98 -1 -22 -5 -47 -8 -55 -3 -8 -8 -28 -11 -45 -3 -16 -12 -60 -20
-98 -8 -37 -18 -96 -22 -130 -4 -34 -10 -67 -15 -73 -6 -7 8 -15 44 -23 107
-24 146 16 201 204 43 147 65 307 67 483 1 114 -2 136 -17 153 -21 23 -27 23
-70 3 -19 -9 -37 -15 -39 -12 -2 2 11 25 29 51 65 91 79 138 74 251 -4 73 -12
123 -31 181 -15 44 -31 94 -37 111 -5 17 -10 41 -10 55 0 81 -87 280 -203 464
-152 243 -202 295 -384 403 -139 83 -155 90 -206 88 -20 0 -37 2 -37 7 0 4 -7
7 -15 7 -8 0 -15 4 -15 10 0 6 9 6 25 0 14 -5 25 -6 25 -1 0 12 -50 32 -62 25
-6 -4 -8 -2 -5 3 4 6 -3 13 -16 17 -36 9 -47 7 -41 -9z m201 -81 c-3 -3 -12
-4 -19 -1 -8 3 -5 6 6 6 11 1 17 -2 13 -5z m-17 -284 c40 -1 56 -5 42 -8 -13
-4 -69 -3 -126 2 -57 5 -116 6 -132 2 -26 -7 -27 -9 -11 -20 9 -7 29 -11 45
-8 19 3 24 1 17 -6 -11 -11 -58 -17 -115 -13 -31 1 -33 3 -18 14 15 12 15 14
-4 26 -30 19 -50 -3 -47 -54 2 -22 0 -45 -3 -50 -3 -6 -6 -50 -7 -100 l-2 -90
58 0 c32 0 63 -3 69 -8 7 -4 28 -6 48 -4 20 2 36 1 36 -4 0 -5 17 -9 38 -9 69
-1 72 -1 67 -11 -4 -5 3 -9 14 -9 11 0 23 -5 27 -11 5 -9 -1 -10 -21 -5 -59
15 -322 45 -343 39 l-22 -5 0 165 c0 191 -11 175 119 176 47 1 86 2 87 4 2 2
29 0 61 -4 32 -4 87 -8 123 -9z m-232 -79 c10 -6 8 -10 -9 -14 -26 -7 -34 -3
-24 12 7 13 15 14 33 2z m-31 -55 c-17 -14 -17 -15 5 -22 22 -7 22 -7 3 -15
-30 -12 -35 -10 -32 9 4 25 16 42 30 42 7 0 4 -7 -6 -14z m-1222 -646 c-3 -5
-20 -19 -38 -30 l-32 -22 35 31 c35 32 46 38 35 21z m2191 -516 c-3 -9 -6 -22
-6 -30 0 -8 -16 -24 -35 -35 l-35 -21 0 -79 c0 -72 -2 -79 -20 -79 -23 0 -28
34 -7 44 9 5 9 7 0 12 -7 3 -9 12 -6 20 3 8 0 14 -6 14 -6 0 -11 -6 -12 -12
-6 -69 -9 -90 -19 -105 -10 -16 -11 -16 -6 2 2 11 8 49 11 84 5 43 13 68 26
79 11 10 19 29 19 49 0 28 6 36 38 52 47 24 66 26 58 5z m102 -65 c-29 -23
-38 -39 -39 -62 0 -18 -3 -26 -6 -19 -7 18 -24 15 -50 -10 -22 -21 -23 -21
-23 -2 0 22 115 123 140 123 8 0 -2 -13 -22 -30z m-1821 -206 c-4 -3 -23 8
-44 24 -21 17 -59 42 -85 57 -47 28 -56 44 -42 81 6 13 25 -1 92 -70 46 -47
82 -89 79 -92z m-97 -60 c39 -36 70 -71 70 -78 0 -6 -11 -17 -25 -23 -14 -6
-25 -16 -25 -22 0 -5 -9 -10 -20 -10 -26 0 -57 50 -65 104 -3 23 -8 53 -11 69
-3 15 -3 27 0 27 4 0 38 -30 76 -67z m1897 35 c-3 -7 -5 -2 -5 12 0 14 2 19 5
13 2 -7 2 -19 0 -25z m-236 -29 c-5 -13 -10 -19 -10 -12 -1 15 10 45 15 40 3
-2 0 -15 -5 -28z m239 -124 c0 -18 -72 -95 -89 -95 -10 0 75 107 87 109 1 1 2
-6 2 -14z m-1750 -45 c12 -8 12 -10 -5 -9 -11 0 -29 4 -40 9 -18 8 -18 9 5 9
14 0 32 -4 40 -9z m201 -61 c-16 -6 -28 -6 -35 1 -7 7 1 10 25 9 32 0 33 -1
10 -10z m330 -4 c1 -5 5 -15 10 -21 7 -8 3 -24 -11 -48 -26 -48 -25 -53 9 -61
51 -11 24 -36 -54 -50 -5 -1 -21 -7 -35 -12 -14 -6 -51 -11 -83 -12 -54 -1
-58 1 -68 27 -8 19 -7 38 1 65 9 33 15 38 32 33 36 -9 109 16 127 44 9 14 23
31 31 37 17 14 41 13 41 -2z m-231 -59 c0 -18 -24 -65 -31 -60 -10 6 -12 48
-2 57 7 7 33 10 33 3z m610 -81 c0 -9 -6 -17 -12 -19 -7 -2 -29 -8 -48 -14
-28 -10 -37 -9 -48 2 -16 16 -8 37 11 31 7 -2 28 0 47 4 50 13 50 13 50 -4z
m-130 -39 c0 -3 -4 -8 -10 -11 -5 -3 -10 -1 -10 4 0 6 5 11 10 11 6 0 10 -2
10 -4z m-40 -16 c0 -5 -5 -10 -11 -10 -5 0 -7 5 -4 10 3 6 8 10 11 10 2 0 4
-4 4 -10z m-400 -74 c0 -7 -12 -25 -26 -40 -40 -40 -55 -33 -35 16 5 13 12 31
15 41 5 15 9 16 26 7 11 -6 20 -17 20 -24z m158 -120 c18 -30 36 -47 55 -51
48 -11 29 -24 -35 -24 -35 1 -90 -6 -123 -15 -78 -21 -171 -31 -178 -19 -8 12
22 114 38 132 14 14 39 6 30 -9 -3 -5 -1 -11 5 -15 5 -3 10 -15 10 -26 0 -18
8 -15 63 24 81 59 100 59 135 3z m-58 -172 c14 -35 14 -34 -20 -34 -32 0 -47
18 -36 45 9 25 45 18 56 -11z m280 12 c9 -12 9 -21 -2 -43 -12 -25 -18 -28
-58 -26 -25 1 -48 2 -51 2 -18 2 -15 44 4 61 25 24 89 27 107 6z m90 -2 c11
-13 10 -18 -6 -35 -23 -22 -50 -17 -57 11 -9 36 38 55 63 24z m-295 -11 c0 -6
3 -15 8 -19 4 -4 7 -16 7 -27 0 -13 -5 -17 -16 -13 -9 3 -19 6 -24 6 -12 0
-21 31 -14 52 6 20 39 21 39 1z m341 -168 c-8 -8 -17 -15 -20 -15 -3 0 -3 7 0
15 4 8 13 15 21 15 12 0 12 -2 -1 -15z m-31 -35 c-3 -5 -14 -10 -23 -9 -14 0
-13 2 3 9 27 11 27 11 20 0z m231 -142 c4 -6 3 -8 -4 -4 -6 3 -13 2 -17 -4 -3
-5 -12 -10 -18 -10 -7 0 -3 7 7 15 24 18 23 18 32 3z m-31 -47 c8 -14 -10 -22
-30 -15 -13 5 -14 8 -3 15 17 11 26 11 33 0z m-40 -61 c10 -16 -13 -38 -46
-45 -16 -4 -29 -11 -29 -16 0 -5 -5 -9 -12 -9 -6 0 -20 -8 -31 -17 -19 -18
-19 -17 -6 5 8 12 21 22 29 23 13 0 13 1 0 6 -25 10 -41 43 -20 43 6 0 10 -8
11 -17 0 -14 3 -13 11 5 13 26 28 29 28 5 0 -15 3 -14 22 5 25 25 34 27 43 12z
m-125 -41 c0 -5 -4 -9 -8 -9 -5 0 -9 7 -9 15 0 8 4 12 9 9 4 -3 8 -9 8 -15z
m-1790 -79 c0 -5 -5 -10 -11 -10 -5 0 -7 5 -4 10 3 6 8 10 11 10 2 0 4 -4 4
-10z m-150 -60 c-8 -5 -24 -9 -35 -9 l-20 0 20 9 c11 5 27 9 35 9 13 1 13 0 0
-9z m-213 -46 c-3 -3 -12 -4 -19 -1 -8 3 -5 6 6 6 11 1 17 -2 13 -5z m2083 -2
c0 -9 -44 -32 -60 -32 -19 0 -10 21 13 30 29 11 47 12 47 2z m-2153 -8 c-3 -3
-12 -4 -19 -1 -8 3 -5 6 6 6 11 1 17 -2 13 -5z m-54 -21 c-7 -2 -21 -2 -30 0
-10 3 -4 5 12 5 17 0 24 -2 18 -5z m-216 -39 c-3 -3 -12 -4 -19 -1 -8 3 -5 6
6 6 11 1 17 -2 13 -5z m-104 -61 c-7 -2 -19 -2 -25 0 -7 3 -2 5 12 5 14 0 19
-2 13 -5z m2352 -3 c3 -5 -3 -10 -15 -10 -12 0 -18 5 -15 10 3 6 10 10 15 10
5 0 12 -4 15 -10z m-22 -27 c-7 -2 -19 -2 -25 0 -7 3 -2 5 12 5 14 0 19 -2 13
-5z m-253 -188 c0 -8 -4 -15 -10 -15 -5 0 -7 7 -4 15 4 8 8 15 10 15 2 0 4 -7
4 -15z m-2541 -12 c-17 -22 -31 -33 -43 -33 -5 0 1 11 14 25 27 28 50 34 29 8z
m-53 -67 c0 -15 -8 -27 -18 -30 -22 -5 -22 -2 -2 29 20 31 22 31 20 1z m1943
-27 c13 -39 13 -39 1 -39 -6 0 -14 8 -17 18 -4 9 -11 20 -16 23 -10 7 -1 29
13 29 4 0 13 -14 19 -31z m-1984 -19 c3 -5 1 -10 -4 -10 -6 0 -11 5 -11 10 0
6 2 10 4 10 3 0 8 -4 11 -10z m2015 -50 c0 -5 -7 -7 -15 -4 -8 4 -12 10 -9 15
6 11 24 2 24 -11z m-2020 -15 c0 -12 -19 -12 -23 0 -4 9 -1 12 9 8 7 -3 14 -7
14 -8z m-50 -55 c-6 -11 -12 -20 -14 -20 -2 0 -2 9 1 20 3 11 9 20 15 20 5 0
4 -9 -2 -20z m-2611 -710 l-1 -55 -19 59 c-15 46 -17 61 -7 67 19 12 28 -11
27 -71z m201 -15 c0 -19 -4 -35 -10 -35 -11 0 -14 53 -3 63 11 12 13 8 13 -28z
m140 26 c0 -5 -9 -7 -20 -4 -11 3 -20 7 -20 9 0 2 9 4 20 4 11 0 20 -4 20 -9z
m-105 -21 c5 -8 11 -8 20 0 8 7 20 7 36 1 13 -5 20 -10 14 -10 -6 -1 -11 -39
-13 -88 -2 -55 -7 -90 -15 -95 -9 -5 -9 -8 0 -8 6 0 10 -8 8 -17 -2 -10 -4
-24 -4 -30 -1 -10 -7 -10 -26 -1 -26 12 -32 27 -15 44 11 11 1 56 -11 48 -5
-3 -9 -20 -9 -39 0 -35 -14 -53 -25 -35 -4 6 -7 45 -6 86 l1 75 -33 14 -32 15
43 -6 c42 -7 42 -6 42 25 0 31 13 41 25 21z m-185 -10 c8 -5 11 -10 5 -10 -5
0 -17 5 -25 10 -8 5 -10 10 -5 10 6 0 17 -5 25 -10z m285 0 c3 -5 1 -10 -4
-10 -6 0 -11 5 -11 10 0 6 2 10 4 10 3 0 8 -4 11 -10z m25 -67 c0 -12 -6 -23
-12 -26 -10 -3 -10 -8 1 -21 11 -13 12 -25 3 -54 -10 -37 -9 -78 3 -119 6 -20
4 -23 -19 -23 -26 0 -35 13 -17 25 6 3 6 18 1 36 -5 17 -6 75 -3 129 6 93 7
98 24 87 11 -7 19 -22 19 -34z m287 -151 c26 -11 57 -22 67 -26 10 -3 17 -9
14 -11 -4 -5 -127 41 -137 51 -9 8 10 3 56 -14z m-447 -97 c-3 -30 -2 -57 2
-59 5 -3 4 -4 -2 -2 -7 1 -11 5 -11 9 1 4 1 30 1 57 0 28 4 50 8 50 4 0 5 -25
2 -55z m614 35 c7 0 21 -7 32 -15 16 -12 12 -12 -28 1 -27 9 -48 18 -48 21 0
3 7 2 16 -1 9 -3 21 -6 28 -6z m-536 -57 c-5 -41 -21 -29 -25 18 -4 39 -3 40
12 25 9 -9 15 -28 13 -43z m10475 50 c-7 -2 -21 -2 -30 0 -10 3 -4 5 12 5 17
0 24 -2 18 -5z m850 0 c-7 -2 -19 -2 -25 0 -7 3 -2 5 12 5 14 0 19 -2 13 -5z
m-10560 -95 c9 -6 9 -8 0 -8 -7 0 -14 -8 -14 -17 -1 -10 -5 2 -9 27 -4 25 -4
52 -1 60 3 9 7 1 9 -20 2 -19 9 -38 15 -42z m-697 52 c12 0 14 -47 14 -302 -1
-191 -5 -297 -10 -288 -6 8 -11 62 -12 120 l-2 105 -5 -85 -6 -85 -27 57 c-37
80 -42 98 -26 98 17 0 18 44 1 61 -6 6 -9 19 -5 28 5 13 3 14 -10 3 -12 -10
-18 -10 -27 2 -13 16 2 32 19 21 11 -7 40 12 40 25 0 4 -11 11 -25 14 -14 4
-25 11 -25 17 0 7 9 9 21 6 12 -3 22 0 26 9 8 21 -4 29 -22 14 -10 -8 -15 -9
-15 -1 0 6 0 14 0 18 0 4 10 8 21 8 17 0 22 7 25 33 3 26 0 32 -16 32 -12 0
-20 7 -20 17 0 13 3 14 12 5 15 -15 28 -15 28 -1 0 6 6 17 14 25 13 12 15 12
19 -4 3 -12 5 -11 6 6 1 19 -3 22 -19 17 -16 -5 -20 -2 -20 15 0 16 4 20 16
16 9 -3 22 -6 30 -6z m599 -11 c22 -10 29 -16 15 -13 -28 7 -80 33 -65 33 6 0
28 -9 50 -20z m338 -16 c-7 -2 -13 -9 -13 -14 0 -6 5 -7 10 -4 6 3 10 -1 10
-9 0 -20 19 -21 26 -1 9 23 29 18 44 -10 11 -21 15 -23 22 -10 5 8 14 15 21
15 7 0 6 -4 -3 -10 -10 -6 -11 -10 -2 -10 8 0 12 -18 12 -55 0 -30 -4 -55 -10
-55 -5 0 -10 -13 -10 -30 0 -16 5 -30 10 -30 6 0 10 -25 10 -55 0 -44 -3 -53
-15 -49 -8 4 -15 10 -15 16 0 5 5 6 10 3 6 -3 10 1 10 10 0 9 -4 13 -10 10 -5
-3 -10 1 -10 11 0 13 -3 14 -14 5 -7 -6 -12 -22 -11 -36 2 -14 -1 -27 -6 -31
-5 -3 -9 3 -9 13 0 15 -2 16 -10 3 -7 -11 -10 -6 -10 21 0 23 -6 39 -15 43 -8
3 -15 1 -15 -5 0 -6 -4 -8 -8 -5 -5 3 -9 -1 -9 -9 0 -8 4 -12 9 -9 4 3 8 -19
9 -48 0 -39 3 -48 9 -33 6 13 9 15 9 5 1 -9 4 -11 9 -5 4 6 14 10 22 9 8 0 23
-2 33 -2 9 -1 17 -10 18 -19 0 -15 2 -15 8 2 8 20 8 20 15 -1 7 -24 -8 -74
-24 -74 -5 0 -10 5 -10 10 0 6 -6 10 -13 10 -7 0 -22 8 -33 18 -17 16 -32 19
-59 13 -5 -2 4 -9 20 -16 20 -10 24 -14 12 -15 -10 0 -16 -4 -13 -9 3 -4 -2
-17 -10 -27 -9 -10 -12 -13 -8 -5 5 9 3 12 -4 7 -17 -10 -15 -33 3 -40 17 -6
21 -66 4 -66 -8 0 -8 -5 1 -15 14 -17 40 -20 40 -4 0 6 9 3 22 -5 12 -9 31
-13 43 -10 20 5 21 1 23 -48 1 -38 -1 -47 -8 -33 -7 17 -9 18 -9 3 -1 -21 -24
-24 -43 -5 -7 7 -19 12 -25 11 -7 -1 -17 -2 -23 -3 -15 -2 -12 -41 5 -57 8 -9
15 -11 15 -5 0 6 14 11 30 11 17 0 30 -5 30 -11 0 -5 4 -8 9 -5 10 7 21 -41
21 -95 0 -65 -20 -43 -22 24 l-2 62 -3 -52 c-2 -31 -9 -53 -15 -53 -18 0 -77
43 -82 60 -2 9 -4 7 -5 -6 -1 -16 11 -27 46 -45 77 -39 83 -47 78 -109 -4 -69
-4 -67 -13 -54 -4 6 -18 14 -32 18 -23 6 -23 6 -5 -5 11 -7 27 -21 36 -31 9
-10 22 -18 30 -18 8 0 9 3 3 9 -15 16 0 261 17 272 10 6 10 9 2 9 -17 0 -17
57 -1 62 10 4 10 10 1 31 -10 21 -10 29 2 41 17 16 19 33 6 38 -10 4 -24 460
-15 505 5 26 10 31 32 28 15 -1 28 -8 30 -14 2 -6 19 -11 38 -11 32 0 34 -2
35 -37 l2 -38 7 35 c5 24 8 28 9 12 0 -13 5 -21 10 -18 12 8 21 -84 18 -202
-1 -56 1 -102 4 -102 9 0 20 151 13 175 -3 11 -1 31 5 45 10 25 10 24 10 -7 1
-31 3 -32 109 -72 129 -50 151 -59 135 -60 -7 -1 -61 17 -119 39 -59 22 -111
40 -115 40 -5 0 -9 -31 -9 -68 l0 -68 36 -13 c19 -7 34 -15 31 -17 -2 -3 -17
0 -32 6 -36 14 -41 6 -44 -68 -2 -55 0 -58 26 -69 l28 -12 -27 6 -26 5 0 -71
1 -70 49 -21 c28 -12 48 -24 45 -26 -3 -3 -23 4 -46 15 -22 12 -43 21 -46 21
-3 0 -5 -26 -5 -57 0 -32 -5 -65 -10 -73 -6 -10 -7 33 -3 120 3 74 2 132 -3
127 -4 -4 -9 -31 -10 -60 -6 -155 -6 -228 0 -234 3 -3 6 1 6 10 0 9 3 17 8 17
6 0 7 -54 1 -220 -2 -55 -2 -55 -9 -15 -6 33 -7 26 -7 -35 -1 -54 2 -66 7 -45
7 28 8 27 11 -15 1 -25 2 -65 2 -90 -1 -25 -2 -94 -3 -155 -2 -74 -5 -99 -10
-75 -4 23 -8 -13 -11 -103 -2 -77 -1 -141 4 -144 4 -2 8 15 8 39 l1 43 9 -55
c11 -64 3 -151 -14 -163 -9 -5 -8 -11 3 -20 21 -17 15 -113 -8 -122 -8 -3 -20
0 -26 6 -8 8 -8 13 2 16 19 7 17 123 -3 123 -9 0 -15 -9 -16 -22 0 -22 -1 -22
-9 -3 -17 40 -12 56 15 49 30 -7 33 9 10 52 l-15 29 0 -32 c0 -18 -5 -33 -11
-33 -7 0 -9 9 -5 24 4 16 1 26 -9 30 -9 3 -15 0 -15 -9 0 -8 -7 -15 -15 -15
-8 0 -18 0 -22 0 -5 0 -8 4 -8 9 0 22 -15 21 -20 -1 -4 -14 -12 -25 -20 -25
-18 0 -29 45 -15 62 8 9 8 15 0 20 -5 3 -10 33 -10 66 0 49 3 59 18 60 10 0
12 3 5 6 -7 2 -13 11 -13 18 0 8 -4 16 -9 19 -5 3 -9 -24 -10 -61 -1 -36 -5
-71 -10 -77 -5 -6 -5 -34 0 -65 9 -62 9 -64 -15 -55 -14 5 -17 18 -16 63 1 31
1 88 -1 126 l-2 70 -8 -55 c-4 -30 -5 -81 -2 -112 5 -49 3 -58 -11 -58 -9 0
-16 8 -16 19 0 28 -43 24 -57 -5 -6 -13 -7 -24 -3 -24 5 0 10 5 12 10 2 7 13
6 30 -2 32 -15 36 -28 9 -28 -10 0 -22 -8 -25 -17 -6 -14 -9 -15 -16 -4 -4 8
-15 11 -24 8 -11 -4 -16 -1 -16 11 -4 221 2 618 11 628 7 8 7 14 -1 19 -12 7
-13 395 -1 395 4 0 6 44 5 98 -5 231 -4 355 2 469 l7 121 -52 23 c-28 12 -50
23 -48 25 2 3 20 -3 40 -11 54 -22 57 -20 57 40 0 46 3 55 18 54 10 0 12 -3 5
-6z m-838 -303 c8 0 15 6 16 13 0 6 5 1 11 -13 6 -14 12 -20 15 -13 2 7 -1 21
-7 32 -6 13 -7 21 -1 21 5 0 14 19 19 43 8 34 10 13 11 -105 1 -89 5 -149 11
-153 7 -4 10 -76 10 -198 0 -106 2 -203 6 -217 8 -36 -6 -15 -72 108 l-56 103
6 272 c8 393 10 430 13 260 3 -127 6 -153 18 -153z m-248 223 c-3 -10 -5 -2
-5 17 0 19 2 27 5 18 2 -10 2 -26 0 -35z m893 37 c8 -5 11 -10 5 -10 -5 0 -17
5 -25 10 -8 5 -10 10 -5 10 6 0 17 -5 25 -10z m50 -20 c8 -5 11 -10 5 -10 -5
0 -17 5 -25 10 -8 5 -10 10 -5 10 6 0 17 -5 25 -10z m-883 -32 c-3 -8 -6 -5
-6 6 -1 11 2 17 5 13 3 -3 4 -12 1 -19z m782 -58 c4 0 16 -7 27 -16 18 -14 18
-15 -4 -4 -13 7 -25 10 -27 8 -7 -7 -8 -105 -1 -116 11 -18 -6 -14 -34 8 -24
19 -24 19 -2 13 21 -5 22 -3 22 54 0 55 -2 60 -27 70 l-28 12 28 -6 c25 -5 27
-3 29 28 1 29 2 28 5 -8 2 -24 8 -43 12 -43z m-532 38 c-3 -7 -5 -2 -5 12 0
14 2 19 5 13 2 -7 2 -19 0 -25z m-304 -21 c-3 -5 -9 -3 -14 4 -4 7 -5 17 -2
22 3 5 9 3 14 -4 4 -7 5 -17 2 -22z m358 -84 c-9 -15 -10 -14 -7 10 3 15 0 27
-5 27 -5 0 -9 8 -9 18 0 14 2 15 10 2 8 -13 10 -12 11 5 1 11 4 5 6 -12 2 -18
-1 -41 -6 -50z m634 -11 c-3 -3 -11 0 -18 7 -9 10 -8 11 6 5 10 -3 15 -9 12
-12z m45 -12 c8 -5 11 -10 5 -10 -5 0 -17 5 -25 10 -8 5 -10 10 -5 10 6 0 17
-5 25 -10z m-679 -65 c0 -31 -2 -59 -5 -63 -3 -3 -6 25 -6 63 0 38 3 66 6 63
3 -4 5 -32 5 -63z m329 -31 c0 -2 -9 0 -20 6 -11 6 -20 13 -20 16 0 2 9 0 20
-6 11 -6 20 -13 20 -16z m60 -34 c8 -5 11 -10 5 -10 -5 0 -17 5 -25 10 -8 5
-10 10 -5 10 6 0 17 -5 25 -10z m74 -188 c-3 -86 -7 -158 -9 -161 -3 -2 -5 6
-5 19 0 12 -8 29 -17 36 -16 12 -16 13 -1 8 14 -5 16 2 15 48 -1 29 3 86 7
126 8 61 7 72 -6 72 -9 0 -21 7 -28 15 -11 13 -8 13 18 4 l31 -11 -5 -156z
m-453 139 c19 -18 19 -19 2 -18 -18 2 -33 15 -33 30 0 12 10 8 31 -12z m514
-29 c-3 -3 -11 0 -18 7 -9 10 -8 11 6 5 10 -3 15 -9 12 -12z m281 1 c-11 -11
-35 -12 -42 -2 -3 5 7 9 22 9 15 0 24 -3 20 -7z m419 -14 c22 -10 29 -16 15
-13 -28 7 -80 33 -65 33 6 0 28 -9 50 -20z m-595 -29 c22 -11 40 -23 40 -25 0
-5 -79 32 -89 41 -11 10 14 2 49 -16z m4820 -15 c0 -8 -4 -15 -10 -15 -5 0
-10 7 -10 15 0 8 5 15 10 15 6 0 10 -7 10 -15z m-4590 -54 c0 -24 -4 -31 -20
-31 -11 0 -20 5 -20 11 0 6 -7 8 -15 5 -9 -3 -18 1 -21 9 -3 8 -15 17 -27 21
-20 6 -19 7 7 21 15 8 36 11 46 8 12 -4 20 -2 20 5 0 7 6 6 15 -4 8 -8 15 -28
15 -45z m305 -39 c-3 -3 -11 0 -18 7 -9 10 -8 11 6 5 10 -3 15 -9 12 -12z
m119 -43 c5 -5 -7 -3 -27 3 -21 6 -37 15 -37 19 0 9 47 -8 64 -22z m489 -86
c-7 -2 -19 -2 -25 0 -7 3 -2 5 12 5 14 0 19 -2 13 -5z m-1588 -31 c-3 -3 -11
0 -18 7 -9 10 -8 11 6 5 10 -3 15 -9 12 -12z m1049 -17 c25 -19 9 -19 -24 0
-14 8 -19 14 -10 14 8 0 24 -6 34 -14z m-979 -25 c10 -11 16 -20 13 -20 -3 0
-13 9 -23 20 -10 11 -16 20 -13 20 3 0 13 -9 23 -20z m197 1 l20 -20 -20 6
c-11 3 -23 11 -26 19 -7 19 1 18 26 -5z m235 3 c-3 -3 -12 -4 -19 -1 -8 3 -5
6 6 6 11 1 17 -2 13 -5z m609 -10 c18 -14 18 -14 -6 -3 -31 14 -36 19 -24 19
6 0 19 -7 30 -16z m468 -23 c-8 -15 -18 -49 -23 -75 -10 -53 -14 -59 -40 -61
-18 -1 -17 1 5 30 13 18 24 40 24 49 0 23 30 86 40 86 5 0 2 -13 -6 -29z m-59
10 c-6 -5 -23 -12 -40 -16 l-30 -6 25 15 c28 17 60 22 45 7z m-529 -99 c-5 -4
-86 36 -86 43 0 3 20 -5 45 -17 24 -12 43 -23 41 -26z m-771 18 c3 -6 -1 -7
-9 -4 -18 7 -21 14 -7 14 6 0 13 -4 16 -10z m73 -53 c15 -16 15 -17 -1 -11
-12 4 -20 -1 -26 -17 -9 -22 -10 -21 -10 12 -1 19 -7 41 -13 48 -11 10 -10 11
5 6 12 -5 17 -2 18 11 1 12 3 10 6 -6 3 -14 12 -33 21 -43z m4111 52 c46 -16
38 -29 -19 -29 -43 0 -50 3 -50 20 0 23 21 26 69 9z m-3374 -29 c3 -6 -1 -7
-9 -4 -18 7 -21 14 -7 14 6 0 13 -4 16 -10z m5689 -6 c5 -14 4 -15 -9 -4 -17
14 -19 20 -6 20 5 0 12 -7 15 -16z m-5644 -14 c13 -8 13 -10 -2 -10 -9 0 -20
5 -23 10 -8 13 5 13 25 0z m-735 -38 c-3 -3 -11 0 -18 7 -9 10 -8 11 6 5 10
-3 15 -9 12 -12z m1142 12 c-3 -3 -12 -4 -19 -1 -8 3 -5 6 6 6 11 1 17 -2 13
-5z m-1176 -119 c21 -15 39 -30 39 -33 0 -2 -10 3 -22 12 -13 9 -29 19 -35 22
-7 3 -27 20 -45 38 -18 17 -29 28 -23 24 16 -14 35 -9 37 10 0 9 3 3 5 -15 3
-23 15 -38 44 -58z m114 65 c3 -6 -1 -7 -9 -4 -18 7 -21 14 -7 14 6 0 13 -4
16 -10z m521 -16 c18 -14 18 -14 -6 -3 -31 14 -36 19 -24 19 6 0 19 -7 30 -16z
m120 -62 c-5 -4 -86 36 -86 43 0 3 20 -5 45 -17 24 -12 43 -23 41 -26z m-806
-89 c0 -43 -5 -41 -13 5 -4 18 -2 32 3 32 6 0 10 -16 10 -37z m175 19 c-3 -3
-11 0 -18 7 -9 10 -8 11 6 5 10 -3 15 -9 12 -12z m520 -30 c-3 -3 -11 0 -18 7
-9 10 -8 11 6 5 10 -3 15 -9 12 -12z m-780 -50 c-3 -3 -16 5 -28 17 l-22 23
28 -17 c15 -10 25 -20 22 -23z m893 2 c18 -8 32 -17 32 -19 0 -7 -60 17 -66
26 -7 12 -2 11 34 -7z m5891 2 c40 -21 82 -81 88 -127 3 -21 3 -39 -1 -39 -15
0 -85 79 -105 118 -32 64 -29 72 18 48z m-6686 -125 c1 -55 -1 -101 -5 -101
-5 0 -8 9 -8 20 0 11 -4 20 -8 20 -4 0 -5 30 -1 68 5 37 8 76 8 86 1 11 3 17
6 14 3 -3 7 -51 8 -107z m694 47 c-2 -13 -4 -3 -4 22 0 25 2 35 4 23 2 -13 2
-33 0 -45z m-723 23 c-2 -3 -12 3 -22 13 -16 17 -16 18 5 5 12 -7 20 -15 17
-18z m81 -61 c3 -6 -1 -7 -9 -4 -18 7 -21 14 -7 14 6 0 13 -4 16 -10z m740
-48 c-4 -5 -75 37 -75 44 0 3 18 -5 40 -17 22 -12 38 -25 35 -27z m-98 -24
c-3 -7 -5 -2 -5 12 0 14 2 19 5 13 2 -7 2 -19 0 -25z m159 -3 c10 -8 15 -14 9
-14 -5 0 -19 6 -29 14 -11 8 -15 15 -10 15 6 0 19 -7 30 -15z m46 -100 c0 -59
-3 -109 -6 -112 -3 -4 -6 47 -6 112 0 65 3 116 6 112 3 -3 6 -54 6 -112z
m-172 10 c0 -2 -6 -2 -14 1 -11 4 -16 -6 -19 -43 l-3 -48 -2 58 c-2 55 -1 57
18 47 11 -6 20 -13 20 -15z m50 -26 c17 -13 18 -17 5 -10 -33 17 -51 31 -40
31 6 0 21 -10 35 -21z m-780 7 c0 -9 -30 -14 -35 -6 -4 6 3 10 14 10 12 0 21
-2 21 -4z m860 -58 c0 -6 -6 -5 -15 2 -8 7 -15 14 -15 16 0 2 7 1 15 -2 8 -4
15 -11 15 -16z m-163 -60 c-3 -8 -6 -5 -6 6 -1 11 2 17 5 13 3 -3 4 -12 1 -19z
m43 -13 c11 -13 10 -14 -4 -9 -9 3 -16 10 -16 15 0 13 6 11 20 -6z m815 5 c3
-5 1 -10 -4 -10 -6 0 -11 5 -11 10 0 6 2 10 4 10 3 0 8 -4 11 -10z m-705 -76
c0 -7 -78 35 -85 45 -3 6 15 -2 40 -15 25 -14 45 -28 45 -30z m-10 -157 c0 -4
-20 6 -45 23 -25 17 -45 33 -45 35 0 8 89 -50 90 -58z m725 43 c3 -5 1 -10 -4
-10 -6 0 -11 5 -11 10 0 6 2 10 4 10 3 0 8 -4 11 -10z m-1105 -22 c0 6 5 12
12 12 6 0 4 -7 -5 -18 -10 -10 -17 -27 -18 -38 0 -14 -2 -15 -6 -4 -4 8 -13
20 -21 26 -13 10 -13 13 4 22 14 8 21 7 26 -1 6 -9 8 -9 8 1z m-200 -8 c0 -5
-4 -10 -10 -10 -5 0 -10 5 -10 10 0 6 5 10 10 10 6 0 10 -4 10 -10z m71 -12
c1 -22 1 -22 9 2 l8 25 1 -27 c1 -22 -5 -29 -24 -34 -33 -8 -38 -3 -29 30 8
32 34 35 35 4z m566 -50 c-3 -8 -6 -5 -6 6 -1 11 2 17 5 13 3 -3 4 -12 1 -19z
m-407 -3 c11 -13 10 -14 -4 -9 -9 3 -16 10 -16 15 0 13 6 11 20 -6z m40 -25
c0 -5 -2 -10 -4 -10 -3 0 -8 5 -11 10 -3 6 -1 10 4 10 6 0 11 -4 11 -10z
m-192 -27 c20 -15 42 -32 47 -39 21 -23 189 -164 197 -164 4 0 8 34 8 75 0 62
3 75 16 75 13 0 15 -12 13 -74 -2 -41 -1 -77 1 -80 3 -2 3 -29 2 -60 -3 -48
-6 -54 -18 -42 -8 8 -14 23 -14 33 0 12 -3 14 -8 6 -5 -9 -40 22 -108 95 -200
213 -215 233 -136 175z m1222 -33 c0 -5 -2 -10 -4 -10 -3 0 -8 5 -11 10 -3 6
-1 10 4 10 6 0 11 -4 11 -10z m-893 -62 c-3 -8 -6 -5 -6 6 -1 11 2 17 5 13 3
-3 4 -12 1 -19z m410 -85 c-2 -16 -4 -5 -4 22 0 28 2 40 4 28 2 -13 2 -35 0
-50z m-410 20 c-3 -10 -5 -4 -5 12 0 17 2 24 5 18 2 -7 2 -21 0 -30z m298 17
c3 -6 -1 -7 -9 -4 -18 7 -21 14 -7 14 6 0 13 -4 16 -10z m82 -87 c-3 -10 -5
-4 -5 12 0 17 2 24 5 18 2 -7 2 -21 0 -30z m38 -3 c3 -5 1 -10 -4 -10 -6 0
-11 5 -11 10 0 6 2 10 4 10 3 0 8 -4 11 -10z m515 0 c0 -5 -2 -10 -4 -10 -3 0
-8 5 -11 10 -3 6 -1 10 4 10 6 0 11 -4 11 -10z m-933 -32 c-3 -8 -6 -5 -6 6
-1 11 2 17 5 13 3 -3 4 -12 1 -19z m478 -8 c21 -16 34 -30 28 -30 -10 0 -81
59 -72 60 3 0 23 -13 44 -30z m-178 -12 c-3 -7 -5 -2 -5 12 0 14 2 19 5 13 2
-7 2 -19 0 -25z m101 -120 c10 2 12 -12 10 -55 -2 -40 -7 -57 -15 -55 -9 1
-13 -10 -13 -34 0 -21 4 -33 10 -29 6 4 7 11 4 17 -4 7 -2 8 4 4 7 -4 12 -19
13 -34 0 -23 2 -24 8 -8 5 14 10 16 15 8 11 -18 36 -14 35 6 0 10 -3 12 -6 5
-8 -22 -23 -14 -23 12 0 14 -4 25 -10 25 -5 0 -10 17 -10 38 1 35 1 36 16 17
15 -20 16 -19 14 5 -3 40 -1 43 17 29 14 -12 16 -12 11 2 -3 9 -2 22 3 30 6
11 9 8 9 -9 0 -13 7 -30 15 -38 8 -9 16 -30 16 -47 1 -24 3 -26 6 -9 2 12 8
20 12 17 5 -2 12 10 17 28 l8 32 3 -42 c3 -29 9 -43 19 -43 9 0 14 -11 14 -31
0 -28 -2 -30 -16 -18 -15 12 -16 11 -9 -11 4 -14 12 -26 16 -28 12 -5 11 -92
-1 -92 -5 0 -10 10 -10 22 0 12 -3 18 -7 15 -3 -4 -12 1 -19 10 -11 15 -11 14
-7 -10 3 -15 10 -24 15 -21 5 3 9 0 7 -7 -3 -28 1 -39 16 -39 9 0 15 -9 15
-25 0 -14 3 -24 8 -23 10 3 72 -25 72 -34 0 -3 16 -16 35 -28 19 -12 35 -28
35 -36 0 -9 7 -14 18 -12 14 3 18 17 22 92 5 83 7 89 28 92 22 4 32 -11 11
-18 -7 -2 -7 -12 0 -31 6 -16 11 -52 11 -80 -1 -48 -2 -50 -15 -33 -15 19 -15
19 -15 -2 0 -13 6 -22 15 -22 12 0 15 -12 14 -52 -1 -29 -5 -64 -9 -78 l-8
-25 -2 25 c-1 23 -2 24 -10 5 -9 -20 -9 -20 -15 2 -4 12 -12 20 -19 17 -15 -6
-275 189 -442 331 -162 138 -374 333 -374 345 0 10 53 29 73 26 8 -1 22 -9 31
-19 10 -9 21 -17 25 -17 4 0 32 -21 62 -46 72 -60 83 -68 99 -72 10 -2 11 0 3
10 -15 19 -21 64 -12 80 10 14 13 2 10 -38 -1 -12 4 -24 12 -27 11 -4 17 6 22
36 4 23 9 36 12 29 4 -10 8 -10 19 -1 11 9 14 6 15 -17 0 -17 3 -22 6 -14 3 8
10 18 15 21 5 3 13 26 16 50 l7 44 5 -60 c4 -42 9 -59 18 -57z m4669 60 c-2
-13 -4 -5 -4 17 -1 22 1 32 4 23 2 -10 2 -28 0 -40z m-4770 10 c-3 -7 -5 -2
-5 12 0 14 2 19 5 13 2 -7 2 -19 0 -25z m6338 -155 c-4 -98 -8 -179 -9 -180
-1 -1 -12 0 -24 4 -22 5 -23 9 -16 62 3 31 10 64 15 73 5 9 9 52 9 95 0 86 7
123 22 123 7 0 8 -60 3 -177z m98 141 c43 -14 47 -19 47 -47 -1 -71 -19 -320
-25 -325 -3 -3 -28 5 -56 19 l-52 24 7 89 c3 49 6 127 6 173 0 93 -1 92 73 67z
m151 -50 c36 -12 46 -20 41 -32 -3 -9 -8 -68 -11 -131 -4 -64 -7 -127 -9 -141
-1 -14 -3 -35 -4 -47 -1 -28 -13 -28 -68 -6 -46 20 -54 34 -46 93 4 28 11 40
21 40 14 0 14 2 2 15 -12 11 -14 37 -12 120 4 119 2 117 86 89z m-1820 -28
c-3 -8 -1 -17 4 -20 5 -3 10 -71 11 -151 2 -158 3 -157 -54 -135 -25 9 -25 11
-19 77 12 140 36 243 56 243 4 0 5 -6 2 -14z m-4527 -38 c-3 -7 -5 -2 -5 12 0
14 2 19 5 13 2 -7 2 -19 0 -25z m6474 16 l50 -17 -1 -61 c-2 -90 -21 -290 -29
-298 -12 -14 0 -78 15 -78 7 0 11 6 8 14 -9 24 13 27 61 6 26 -11 59 -20 73
-20 25 0 27 3 27 43 1 59 15 255 22 295 5 29 9 33 27 28 11 -4 43 -12 70 -18
l48 -12 -7 -60 c-16 -126 -20 -276 -9 -276 11 0 22 85 30 239 3 41 6 76 8 78
2 2 31 -4 65 -14 l61 -18 -1 -75 c0 -41 -3 -106 -8 -143 -6 -58 -5 -67 8 -65
13 3 18 28 25 131 10 143 6 138 93 112 58 -17 64 -30 57 -109 -11 -107 -11
-136 1 -136 8 0 14 33 18 97 4 53 11 101 17 107 6 6 18 2 34 -13 19 -18 32
-22 54 -18 15 3 32 3 38 -1 6 -4 10 -44 9 -89 0 -46 3 -83 7 -83 4 0 8 20 8
44 0 62 10 106 25 106 13 0 25 -43 25 -86 0 -17 4 -22 15 -18 12 5 14 15 9 42
l-7 35 38 -6 c21 -3 39 -8 41 -10 2 -2 6 -39 8 -83 5 -78 26 -119 26 -50 0 35
1 36 40 36 36 0 40 3 40 25 0 25 7 30 25 17 12 -9 19 -162 8 -179 -6 -9 -196
-13 -763 -18 -415 -3 -826 -8 -912 -11 -87 -3 -158 -1 -157 3 0 4 27 27 59 50
85 61 125 131 153 267 7 33 17 61 22 63 30 9 35 -13 46 -207 l1 -25 8 25 c4
14 8 60 9 103 1 42 4 77 7 77 3 0 28 -10 56 -22 l49 -23 -6 -78 c-7 -73 -6
-79 11 -75 15 3 17 12 15 66 -3 74 8 83 74 57 l45 -17 0 -59 c0 -35 4 -59 11
-59 6 0 10 15 8 33 -4 67 -3 70 39 64 l37 -6 -25 19 c-14 11 -31 20 -39 20
-11 0 -12 12 -7 58 4 31 9 93 11 137 5 89 14 155 22 155 2 0 27 -7 54 -16z
m154 -50 l48 -17 -7 -101 c-4 -56 -8 -117 -9 -136 -2 -19 -4 -56 -5 -82 -1
-27 -6 -48 -12 -48 -5 0 -35 10 -66 21 l-57 21 8 77 c9 100 13 175 14 234 0
55 7 57 86 31z m-1892 -26 c15 -8 17 -26 17 -158 0 -83 -3 -150 -6 -150 -4 0
-24 5 -45 12 l-39 11 0 154 0 153 28 -6 c15 -4 35 -11 45 -16z m-4642 -38 c5
0 9 -5 9 -11 0 -8 -5 -8 -15 1 -8 7 -14 20 -14 29 1 13 2 13 6 -1 2 -10 9 -18
14 -18z m49 -17 c0 -25 -3 -44 -6 -40 -7 7 -13 69 -7 80 9 16 13 5 13 -40z
m4683 21 l47 -16 0 -73 c0 -41 -5 -86 -10 -101 -8 -19 -8 -30 0 -38 5 -5 10
-30 10 -54 0 -42 -1 -44 -25 -38 -78 20 -73 7 -74 180 0 86 1 156 2 156 2 0
24 -7 50 -16z m-4443 -39 c11 -13 10 -14 -4 -9 -9 3 -16 10 -16 15 0 13 6 11
20 -6z m4571 -6 c23 -9 26 -15 23 -52 -1 -23 1 -87 4 -142 8 -124 20 -68 14
68 -3 94 5 110 46 88 48 -26 52 -37 52 -152 0 -77 3 -108 11 -103 6 4 10 35 9
78 -3 95 -2 106 10 106 13 0 70 -127 70 -157 0 -16 7 -27 20 -30 11 -3 20 -9
20 -14 0 -4 14 -30 30 -56 17 -26 30 -57 30 -70 l0 -23 -446 0 c-419 0 -445 1
-440 18 3 9 10 44 16 77 5 33 15 62 20 63 6 2 10 29 10 60 0 76 8 102 31 102
38 0 59 -35 59 -100 0 -33 4 -60 10 -60 6 0 10 24 10 53 0 30 3 56 6 60 3 3
20 -1 37 -8 27 -11 33 -19 37 -57 6 -48 26 -54 24 -8 -2 34 11 38 65 19 27
-10 32 -15 27 -35 -7 -26 11 -34 20 -10 4 12 12 12 51 0 25 -8 50 -14 54 -14
4 0 8 69 8 153 0 83 0 156 0 161 1 4 9 5 19 1 9 -4 29 -11 43 -16z m-4741 -31
c0 -26 -4 -38 -8 -30 -8 12 -4 72 4 72 2 0 4 -19 4 -42z m-73 -45 c-3 -10 -5
-2 -5 17 0 19 2 27 5 18 2 -10 2 -26 0 -35z m320 27 c14 -11 22 -20 17 -20
-12 1 -61 39 -51 40 5 0 20 -9 34 -20z m1393 -15 c-7 -9 -15 -13 -17 -11 -7 7
7 26 19 26 6 0 6 -6 -2 -15z m5658 -26 c-2 -26 -8 -32 -30 -35 -29 -3 -33 3
-22 30 5 13 9 14 20 5 11 -9 14 -7 14 10 0 11 5 21 11 21 6 0 9 -14 7 -31z
m-118 -5 c0 -8 -4 -14 -10 -14 -5 0 -10 9 -10 21 0 11 5 17 10 14 6 -3 10 -13
10 -21z m-6876 0 c5 -14 4 -15 -9 -4 -17 14 -19 20 -6 20 5 0 12 -7 15 -16z
m-377 -41 c-3 -10 -5 -4 -5 12 0 17 2 24 5 18 2 -7 2 -21 0 -30z m7500 -35
l-4 -23 -8 23 c-6 18 -10 20 -21 11 -9 -8 -14 -8 -14 -1 0 6 9 14 20 17 11 3
21 12 21 18 1 7 3 4 6 -5 2 -10 2 -28 0 -40z m-7497 -4 c0 -8 -5 -12 -10 -9
-6 4 -8 11 -5 16 9 14 15 11 15 -7z m231 -1 c13 -16 12 -17 -3 -4 -17 13 -22
21 -14 21 2 0 10 -8 17 -17z m1359 13 c0 -2 -7 -7 -16 -10 -8 -3 -12 -2 -9 4
6 10 25 14 25 6z m-1290 -63 c0 -7 -39 17 -46 28 -3 6 5 3 20 -6 14 -10 26
-19 26 -22z m1190 -8 c-7 -8 -18 -15 -24 -15 -6 0 -2 7 8 15 25 19 32 19 16 0z
m-1395 -15 c3 -5 2 -10 -4 -10 -5 0 -13 5 -16 10 -3 6 -2 10 4 10 5 0 13 -4
16 -10z m240 0 c3 -6 -1 -7 -9 -4 -18 7 -21 14 -7 14 6 0 13 -4 16 -10z m5045
-47 c0 -21 -18 -24 -55 -9 -19 8 -35 17 -35 20 0 3 20 5 45 4 28 -2 45 -7 45
-15z m-4964 -15 l19 -23 -25 20 c-14 11 -27 21 -29 22 -2 2 0 3 6 3 5 0 18
-10 29 -22z m-136 -90 c0 -12 -6 -9 -26 13 -19 22 -19 22 4 8 12 -8 22 -17 22
-21z m7277 -20 c-3 -7 -5 -2 -5 12 0 14 2 19 5 13 2 -7 2 -19 0 -25z m-5947
-57 c0 -4 -46 -11 -102 -14 -57 -4 -138 -9 -181 -13 -69 -6 -77 -5 -71 9 5 14
30 17 177 20 95 1 173 4 175 5 1 1 2 -2 2 -7z m5878 -60 c16 -10 16 -10 -1
-11 -10 0 -25 -7 -33 -15 -18 -18 -70 -20 -80 -4 -5 9 3 10 29 5 21 -4 38 -2
42 4 3 6 -4 10 -17 10 -348 2 -371 4 -353 22 9 9 395 -1 413 -11z m-565 2
c-29 -2 -78 -2 -110 0 -32 2 -8 3 52 3 61 0 87 -1 58 -3z m117 -3 c13 -9 13
-10 0 -10 -8 0 -22 5 -30 10 -13 9 -13 10 0 10 8 0 22 -5 30 -10z m-437 -7
c-34 -2 -93 -2 -130 0 -37 2 -9 3 62 3 72 0 102 -1 68 -3z m-993 -23 c0 -5 -6
-10 -14 -10 -8 0 -18 5 -21 10 -3 6 3 10 14 10 12 0 21 -4 21 -10z m1075 -10
c9 -14 42 -13 47 2 3 9 11 9 34 0 22 -10 38 -10 58 -2 36 13 149 13 163 -1 8
-8 42 -8 127 0 79 8 136 8 183 1 37 -5 83 -11 101 -12 31 -3 27 -7 -78 -72
l-111 -68 -55 21 c-65 25 -76 26 -50 6 18 -14 11 -15 -75 -15 -52 0 -105 -3
-119 -6 -22 -4 -21 -3 5 10 17 8 26 15 20 16 -40 5 -152 6 -178 1 -18 -4 -51
-4 -75 -1 -52 8 -66 -5 -20 -19 29 -8 26 -9 -32 -10 -36 0 -87 4 -115 9 -29 4
-51 4 -53 -1 -6 -14 -130 -11 -134 3 -4 10 -15 10 -56 0 -40 -11 -55 -11 -73
-1 -16 8 -24 9 -27 1 -2 -8 -11 -8 -30 -1 -26 10 -67 16 -125 18 -16 1 -26 5
-23 10 3 5 -6 11 -20 14 -19 3 -24 1 -20 -10 4 -9 2 -11 -7 -6 -6 4 -28 8 -47
10 -76 5 -130 16 -130 25 0 7 15 8 38 5 24 -4 43 -1 55 8 23 17 9 26 -40 24
-61 -1 -134 12 -130 25 4 13 79 17 87 5 3 -5 23 -10 44 -13 21 -3 48 -13 60
-23 24 -22 97 -25 103 -5 3 8 -10 12 -44 13 -89 1 -8 20 114 26 85 4 113 3
113 -6 0 -8 7 -10 23 -5 22 8 46 9 282 14 72 2 141 7 155 11 36 11 48 10 55
-1z m-1015 -40 c0 -5 -7 -10 -15 -10 -8 0 -15 5 -15 10 0 6 7 10 15 10 8 0 15
-4 15 -10z m-1852 -177 c-10 -2 -26 -2 -35 0 -10 3 -2 5 17 5 19 0 27 -2 18
-5z m85 0 c-13 -2 -33 -2 -45 0 -13 2 -3 4 22 4 25 0 35 -2 23 -4z m-620 -10
c-7 -2 -19 -2 -25 0 -7 3 -2 5 12 5 14 0 19 -2 13 -5z m270 0 c-7 -2 -19 -2
-25 0 -7 3 -2 5 12 5 14 0 19 -2 13 -5z m124 1 c-3 -3 -12 -4 -19 -1 -8 3 -5
6 6 6 11 1 17 -2 13 -5z m1196 -51 c-7 -2 -21 -2 -30 0 -10 3 -4 5 12 5 17 0
24 -2 18 -5z m397 -43 c0 -5 -2 -10 -4 -10 -3 0 -8 5 -11 10 -3 6 -1 10 4 10
6 0 11 -4 11 -10z m403 -7 c-13 -2 -35 -2 -50 0 -16 2 -5 4 22 4 28 0 40 -2
28 -4z m24 -189 c-3 -3 -12 -4 -19 -1 -8 3 -5 6 6 6 11 1 17 -2 13 -5z m580
-10 c-3 -3 -12 -4 -19 -1 -8 3 -5 6 6 6 11 1 17 -2 13 -5z"/>
<path d="M5670 7045 c0 -26 24 -45 57 -45 l37 0 -21 20 c-22 19 -73 38 -73 25z"/>
<path d="M555 4480 c3 -5 8 -10 11 -10 2 0 4 5 4 10 0 6 -5 10 -11 10 -5 0 -7
-4 -4 -10z"/>
<path d="M648 4060 c-1 -27 0 -59 4 -72 3 -13 6 9 7 50 1 82 -5 96 -11 22z"/>
<path d="M645 3951 c-3 -5 -1 -12 5 -16 5 -3 10 1 10 9 0 18 -6 21 -15 7z"/>
<path d="M1594 4093 c-1 -34 3 -60 7 -57 5 3 10 -7 10 -23 1 -17 3 -21 6 -10
2 9 9 15 14 12 5 -4 9 -1 9 5 0 6 5 8 10 5 6 -3 10 3 10 15 0 12 -4 18 -10 15
-6 -4 -10 13 -10 43 0 44 -3 50 -22 54 -22 4 -23 1 -24 -59z"/>
<path d="M1801 4144 c0 -11 3 -14 6 -6 3 7 2 16 -1 19 -3 4 -6 -2 -5 -13z"/>
<path d="M1820 4060 c0 -46 3 -81 6 -77 7 7 6 148 -1 156 -3 2 -5 -33 -5 -79z"/>
<path d="M1774 3980 c0 -58 1 -81 3 -52 2 28 2 76 0 105 -2 28 -3 5 -3 -53z"/>
<path d="M1692 4035 c0 -16 2 -22 5 -12 2 9 2 23 0 30 -3 6 -5 -1 -5 -18z"/>
<path d="M1909 3993 c0 -10 -3 -13 -5 -6 -3 7 -12 9 -20 6 -19 -7 -8 -23 17
-23 12 0 19 7 19 20 0 25 -10 27 -11 3z"/>
<path d="M1842 3930 c0 -14 2 -19 5 -12 2 6 2 18 0 25 -3 6 -5 1 -5 -13z"/>
<path d="M1893 3900 c0 -30 2 -43 4 -27 2 15 2 39 0 55 -2 15 -4 2 -4 -28z"/>
<path d="M1823 3905 c0 -22 2 -30 4 -17 2 12 2 30 0 40 -3 9 -5 -1 -4 -23z"/>
<path d="M1796 3902 c-2 -4 -1 -14 5 -22 7 -12 9 -10 9 8 0 23 -5 28 -14 14z"/>
<path d="M1872 3806 c-2 -33 -4 -37 -17 -26 -12 10 -15 10 -15 -1 0 -11 -2
-11 -10 1 -9 13 -10 13 -11 0 0 -8 -4 -4 -8 10 -7 23 -8 23 -12 -10 -2 -19 -1
-57 2 -85 l6 -50 3 50 c1 28 4 42 7 33 5 -20 33 -25 33 -5 0 8 3 7 9 -2 14
-21 23 23 18 80 l-4 44 -1 -39z"/>
<path d="M1893 3780 c0 -36 2 -50 4 -32 2 17 2 47 0 65 -2 17 -4 3 -4 -33z"/>
<path d="M1911 3772 c-1 -48 1 -52 14 -38 16 16 21 61 6 51 -5 -3 -12 5 -14
17 -2 13 -5 -1 -6 -30z"/>
<path d="M1773 3750 c0 -25 2 -35 4 -22 2 12 2 32 0 45 -2 12 -4 2 -4 -23z"/>
<path d="M1821 3674 c0 -11 3 -14 6 -6 3 7 2 16 -1 19 -3 4 -6 -2 -5 -13z"/>
<path d="M1908 3640 c-2 -22 0 -40 4 -40 5 0 8 18 8 40 0 22 -2 40 -4 40 -2 0
-6 -18 -8 -40z"/>
<path d="M1800 3628 c0 -4 5 -8 11 -8 8 0 10 -18 6 -57 -4 -38 -3 -50 3 -37
13 32 57 21 63 -15 2 -14 4 -6 5 19 0 25 -2 39 -5 33 -3 -10 -9 -9 -20 3 -13
13 -17 13 -24 2 -6 -8 -9 2 -9 28 0 29 -4 41 -15 41 -8 0 -15 -4 -15 -9z"/>
<path d="M1862 3620 c0 -14 2 -19 5 -12 2 6 2 18 0 25 -3 6 -5 1 -5 -13z"/>
<path d="M1842 3610 c0 -14 2 -19 5 -12 2 6 2 18 0 25 -3 6 -5 1 -5 -13z"/>
<path d="M1591 3534 c0 -11 3 -14 6 -6 3 7 2 16 -1 19 -3 4 -6 -2 -5 -13z"/>
<path d="M1903 3515 c0 -22 2 -30 4 -17 2 12 2 30 0 40 -3 9 -5 -1 -4 -23z"/>
<path d="M1792 3520 c0 -14 2 -19 5 -12 2 6 2 18 0 25 -3 6 -5 1 -5 -13z"/>
<path d="M1802 3463 c-19 -7 38 -53 63 -52 17 2 17 2 -2 6 -17 3 -23 12 -24
31 0 15 -3 21 -6 13 -3 -7 -8 -9 -12 -4 -3 6 -12 8 -19 6z"/>
<path d="M1840 3270 c19 -11 42 -19 50 -19 8 0 -3 9 -25 19 -53 24 -70 24 -25
0z"/>
<path d="M1610 3266 c0 -3 9 -10 20 -16 11 -6 20 -8 20 -6 0 3 -9 10 -20 16
-11 6 -20 8 -20 6z"/>
<path d="M1722 3135 c0 -16 2 -22 5 -12 2 9 2 23 0 30 -3 6 -5 -1 -5 -18z"/>
<path d="M1829 3130 c13 -11 31 -20 40 -20 9 0 3 8 -17 20 -41 25 -54 25 -23
0z"/>
<path d="M1703 3045 c0 -13 3 -22 8 -19 5 3 9 -1 9 -8 0 -8 5 -7 16 4 15 15
15 18 1 32 -22 23 -34 20 -34 -9z"/>
<path d="M1683 3015 c0 -22 2 -30 4 -17 2 12 2 30 0 40 -3 9 -5 -1 -4 -23z"/>
<path d="M1605 3001 c-3 -5 -1 -12 5 -16 5 -3 10 1 10 9 0 18 -6 21 -15 7z"/>
<path d="M1810 3006 c0 -9 32 -36 42 -36 6 0 1 9 -12 20 -23 20 -30 24 -30 16z"/>
<path d="M1880 2960 c0 -5 5 -10 10 -10 6 0 10 5 10 10 0 6 -4 10 -10 10 -5 0
-10 -4 -10 -10z"/>
<path d="M1672 2946 c7 -8 15 -12 17 -11 5 6 -10 25 -20 25 -5 0 -4 -6 3 -14z"/>
<path d="M1726 2906 c10 -8 21 -12 24 -10 5 6 -21 24 -34 24 -6 0 -1 -6 10
-14z"/>
<path d="M1610 2851 c0 -5 7 -11 15 -15 8 -3 15 -1 15 3 0 5 -7 11 -15 15 -8
3 -15 1 -15 -3z"/>
<path d="M1830 2836 c14 -8 27 -12 29 -10 6 6 -1 11 -29 18 l-25 7 25 -15z"/>
<path d="M1662 2814 c10 -10 20 -15 24 -12 3 4 -5 12 -18 18 -22 12 -22 12 -6
-6z"/>
<path d="M1680 2655 c0 -8 4 -15 10 -15 5 0 7 7 4 15 -4 8 -8 15 -10 15 -2 0
-4 -7 -4 -15z"/>
<path d="M1620 2560 c0 -5 5 -10 11 -10 5 0 7 5 4 10 -3 6 -8 10 -11 10 -2 0
-4 -4 -4 -10z"/>
<path d="M761 3860 c0 -19 6 -46 14 -60 14 -24 15 -23 9 20 -9 61 -23 86 -23
40z"/>
<path d="M2332 1770 c0 -14 2 -19 5 -12 2 6 2 18 0 25 -3 6 -5 1 -5 -13z"/>
<path d="M2350 1764 c0 -8 5 -12 10 -9 6 3 10 10 10 16 0 5 -4 9 -10 9 -5 0
-10 -7 -10 -16z"/>
<path d="M2380 1750 c0 -18 4 -29 10 -25 6 3 10 15 10 25 0 10 -4 22 -10 25
-6 4 -10 -7 -10 -25z"/>
<path d="M2300 1723 c0 -19 32 -53 50 -53 19 0 9 25 -21 48 -27 22 -29 22 -29
5z"/>
<path d="M2493 1525 c0 -33 2 -45 4 -27 2 18 2 45 0 60 -2 15 -4 0 -4 -33z"/>
<path d="M2632 1340 c0 -19 2 -27 5 -17 2 9 2 25 0 35 -3 9 -5 1 -5 -18z"/>
<path d="M8868 1703 c6 -2 18 -2 25 0 6 3 1 5 -13 5 -14 0 -19 -2 -12 -5z"/>
<path d="M7060 1289 c47 -8 377 -12 369 -5 -2 2 -96 6 -209 8 -113 3 -185 1
-160 -3z"/>
<path d="M7525 1280 l-70 -6 75 -2 c41 -1 82 3 90 8 17 11 22 11 -95 0z"/>
<path d="M7668 1283 c6 -2 18 -2 25 0 6 3 1 5 -13 5 -14 0 -19 -2 -12 -5z"/>
<path d="M7210 1250 c0 -12 17 -12 45 0 17 7 15 9 -12 9 -18 1 -33 -3 -33 -9z"/>
<path d="M9556 978 c-89 -11 -94 -28 -10 -30 38 0 76 0 84 1 8 2 36 4 63 6 63
3 61 3 47 20 -13 15 -73 16 -184 3z"/>
<path d="M9388 972 c-33 -6 -18 -22 20 -22 51 0 75 16 31 21 -19 3 -42 3 -51
1z"/>
<path d="M9080 956 c0 -9 30 -14 35 -6 4 6 -3 10 -14 10 -12 0 -21 -2 -21 -4z"/>
<path d="M9740 930 c0 -5 5 -10 11 -10 5 0 7 5 4 10 -3 6 -8 10 -11 10 -2 0
-4 -4 -4 -10z"/>
<path d="M5823 9305 c9 -119 -1 -190 -27 -204 -15 -8 -16 -10 -3 -6 10 3 26 5
35 5 15 0 16 13 12 134 -3 74 -9 138 -14 143 -5 4 -6 -27 -3 -72z"/>
<path d="M5057 9130 c-75 -70 -147 -177 -147 -217 0 -11 -4 -23 -9 -28 -4 -6
-14 -32 -20 -60 -7 -27 -17 -61 -21 -75 -12 -36 -23 -106 -15 -98 3 3 17 46
30 95 49 176 106 287 198 381 39 39 69 72 65 72 -3 0 -40 -32 -81 -70z"/>
<path d="M5784 8740 c1 -17 6 -30 12 -30 7 0 9 10 6 25 -7 36 -19 40 -18 5z"/>
<path d="M4832 8599 c-1 -9 -5 -32 -8 -50 -4 -28 -3 -31 6 -16 6 9 9 32 7 50
-2 17 -5 25 -5 16z"/>
<path d="M4812 8470 c0 -14 2 -19 5 -12 2 6 2 18 0 25 -3 6 -5 1 -5 -13z"/>
<path d="M4750 8464 c0 -8 -4 -13 -9 -10 -11 7 -45 -43 -35 -52 4 -4 9 -1 12
7 2 7 15 23 28 34 25 22 31 37 14 37 -5 0 -10 -7 -10 -16z"/>
<path d="M4810 8393 c0 -22 2 -25 10 -13 13 20 13 40 0 40 -5 0 -10 -12 -10
-27z"/>
<path d="M4681 8283 c0 -6 -4 -20 -7 -30 -5 -14 -4 -15 5 -7 7 7 11 20 8 30
-3 11 -5 14 -6 7z"/>
<path d="M4506 7668 c-13 -82 -17 -172 -10 -224 8 -70 13 -62 53 90 l32 119
-22 23 c-31 33 -47 30 -53 -8z"/>
<path d="M4680 7442 c0 -6 -20 -18 -45 -28 -51 -19 -65 -37 -65 -84 0 -39 63
-107 107 -116 30 -6 31 -5 37 37 16 113 16 145 4 168 -14 25 -38 40 -38 23z"/>
<path d="M6605 7001 c-3 -5 -2 -12 3 -15 5 -3 9 1 9 9 0 17 -3 19 -12 6z"/>
<path d="M4793 6919 c-7 -7 -33 -18 -60 -25 -45 -12 -46 -13 -15 -13 36 -1
102 25 102 40 0 12 -14 11 -27 -2z"/>
<path d="M6758 6860 c-7 -24 -3 -38 8 -28 3 4 4 17 2 30 l-3 23 -7 -25z"/>
<path d="M6674 6599 c-14 -28 -23 -53 -20 -56 3 -3 15 17 27 43 12 27 24 52
26 57 2 4 2 7 -1 7 -3 0 -17 -23 -32 -51z"/>
<path d="M6416 6375 c4 -8 8 -15 10 -15 2 0 4 7 4 15 0 8 -4 15 -10 15 -5 0
-7 -7 -4 -15z"/>
<path d="M5190 5310 c-9 -6 -10 -10 -3 -10 6 0 15 5 18 10 8 12 4 12 -15 0z"/>
<path d="M6980 5221 c0 -5 7 -12 16 -15 22 -9 24 -8 24 9 0 8 -9 15 -20 15
-11 0 -20 -4 -20 -9z"/>
<path d="M7068 5153 c7 -3 16 -2 19 1 4 3 -2 6 -13 5 -11 0 -14 -3 -6 -6z"/>
<path d="M6771 5108 c-19 -5 -43 -7 -53 -5 -10 3 -20 2 -23 -3 -2 -4 -31 -10
-62 -14 -32 -4 -65 -11 -73 -17 -11 -8 23 -8 115 -3 251 16 301 13 380 -23 39
-18 107 -42 150 -54 44 -11 106 -32 138 -46 88 -36 101 -28 46 30 -25 26 -51
47 -57 47 -7 0 -12 4 -12 8 0 5 -18 18 -40 31 -33 18 -40 20 -40 7 0 -9 10
-18 23 -21 12 -3 27 -17 34 -30 13 -28 7 -31 -20 -10 -11 7 -36 16 -57 20 -21
4 -51 17 -67 31 -15 13 -36 24 -45 24 -10 0 -18 4 -18 10 0 5 -15 12 -32 15
-59 10 -252 12 -287 3z"/>
<path d="M7176 5108 c3 -4 9 -8 15 -8 5 0 9 4 9 8 0 5 -7 9 -15 9 -8 0 -12 -4
-9 -9z"/>
<path d="M6996 4975 c-4 -11 2 -15 24 -15 16 0 32 -4 35 -10 3 -5 15 -10 26
-10 10 0 19 -4 19 -9 0 -5 20 -9 45 -9 27 0 43 4 39 9 -3 6 -11 8 -17 6 -7 -2
-18 2 -25 10 -7 7 -23 13 -35 13 -12 0 -31 7 -41 15 -26 19 -62 19 -70 0z"/>
<path d="M7224 4918 c-3 -4 -11 -5 -17 -1 -7 3 -3 -3 7 -16 13 -14 23 -18 30
-11 5 5 17 10 26 10 13 0 13 -1 0 -10 -12 -8 -10 -10 10 -10 14 0 36 -10 50
-23 14 -13 33 -26 43 -30 9 -3 17 -13 17 -21 0 -8 8 -17 18 -19 14 -4 14 -5 1
-6 -28 -2 -90 29 -83 41 5 7 1 8 -12 0 -19 -11 -84 13 -84 31 0 5 -11 6 -25 3
-14 -4 -33 -2 -42 3 -45 24 -83 29 -164 20 -123 -14 -274 -18 -315 -9 -24 6
-72 2 -147 -11 -60 -10 -148 -22 -194 -26 -80 -6 -83 -7 -67 -24 10 -11 23
-19 30 -19 7 0 14 -5 16 -11 3 -9 10 -8 28 1 13 7 55 16 94 21 39 5 107 15
151 23 44 9 114 16 155 16 41 0 107 5 145 11 113 17 207 13 252 -9 21 -11 58
-25 83 -32 25 -7 96 -37 159 -67 121 -57 160 -69 187 -59 15 6 14 10 -10 34
-14 16 -23 32 -19 37 5 4 0 6 -9 2 -10 -3 -19 0 -22 9 -4 10 -1 13 7 9 6 -4 4
0 -5 8 -10 8 -15 17 -11 20 3 4 -1 7 -10 7 -10 0 -17 8 -17 19 0 20 -18 31
-51 31 -11 0 -36 11 -57 24 -51 32 -137 52 -148 34z"/>
<path d="M6315 4911 c-23 -4 -34 -9 -25 -12 21 -9 91 1 84 12 -3 5 -8 8 -12 8
-4 -1 -25 -5 -47 -8z"/>
<path d="M1531 4861 c-7 -5 -106 -6 -220 -4 -113 3 -203 3 -200 -1 7 -7 346
-92 405 -101 l41 -6 1 48 c2 55 -7 76 -27 64z"/>
<path d="M7523 4832 c0 -10 10 -18 24 -18 28 -2 29 4 6 22 -24 18 -32 17 -30
-4z"/>
<path d="M7131 4774 c-15 -34 -15 -34 14 -34 14 0 43 -9 63 -19 34 -17 67 -26
125 -35 10 -1 22 -7 25 -14 7 -9 41 -19 80 -21 7 -1 11 -5 8 -10 -3 -5 11 -16
32 -24 39 -15 132 -32 132 -23 0 17 -37 36 -71 36 -21 0 -39 5 -39 10 0 6 -6
10 -12 10 -7 0 -33 14 -57 30 -48 33 -111 54 -152 51 -15 0 -32 6 -39 14 -7 8
-21 15 -31 15 -10 0 -21 4 -24 10 -3 5 -14 14 -24 20 -15 7 -20 4 -30 -16z"/>
<path d="M6460 4670 l-35 -7 37 -2 c20 0 40 4 43 9 7 11 7 11 -45 0z"/>
<path d="M6650 4649 c0 -5 -8 -9 -17 -9 -21 0 -86 -22 -93 -32 -3 -4 -39 -8
-80 -10 l-75 -3 62 -38 c35 -21 82 -57 105 -81 40 -39 91 -68 127 -72 26 -2
234 -73 262 -89 14 -8 44 -17 66 -21 40 -6 66 -25 113 -84 14 -18 38 -38 54
-47 26 -14 27 -16 12 -31 -28 -28 -136 -8 -171 32 -46 51 -109 68 -174 45
l-32 -11 33 -25 c18 -13 34 -28 34 -33 1 -6 3 -13 4 -17 1 -5 2 -11 1 -15 0
-5 43 -9 96 -10 l98 -1 -87 -6 c-77 -5 -110 -14 -97 -25 2 -2 49 0 104 3 79 5
100 9 100 21 0 8 7 16 15 18 10 1 24 -18 43 -58 33 -73 35 -100 7 -100 -36 0
-16 -34 24 -41 11 -2 21 -10 24 -17 3 -9 -3 -11 -22 -6 -40 10 -34 -23 7 -40
25 -10 38 -25 51 -56 9 -23 14 -50 11 -60 -3 -10 -2 -21 3 -24 5 -3 13 22 16
56 4 34 14 78 22 98 9 19 17 62 19 94 3 40 9 63 20 68 21 12 19 24 -11 64 -29
38 -49 113 -30 115 6 1 14 1 19 0 23 -3 -4 12 -90 54 -93 45 -216 83 -349 110
-72 14 -221 84 -258 121 -34 35 -35 82 -2 113 l24 22 87 -20 c47 -12 100 -21
116 -21 16 0 56 -11 89 -25 33 -14 75 -25 94 -25 51 0 138 -20 153 -36 8 -7
19 -27 24 -44 7 -19 18 -30 30 -30 10 0 19 -5 19 -11 0 -6 8 -8 19 -4 11 3 22
1 26 -5 3 -5 16 -10 28 -10 21 -1 21 -1 4 -14 -17 -13 -17 -14 0 -20 10 -4 19
-2 21 3 6 17 72 14 72 -3 0 -24 27 -44 53 -39 13 3 40 0 59 -5 35 -10 61 -3
57 14 -1 5 -1 16 0 24 1 13 2 13 11 0 14 -22 14 -9 5 128 -2 24 -6 46 -9 49
-11 12 -68 4 -85 -11 -20 -18 -34 -20 -59 -7 -55 28 -111 51 -142 56 -19 4
-45 13 -57 21 -12 8 -31 14 -43 14 -11 0 -20 4 -20 8 0 15 -157 33 -320 38
-85 2 -170 6 -187 9 -18 2 -33 0 -33 -6z m613 -166 c-7 -2 -21 -2 -30 0 -10 3
-4 5 12 5 17 0 24 -2 18 -5z m-290 -360 c-13 -2 -33 -2 -45 0 -13 2 -3 4 22 4
25 0 35 -2 23 -4z"/>
<path d="M6723 4503 c9 -2 25 -2 35 0 9 3 1 5 -18 5 -19 0 -27 -2 -17 -5z"/>
<path d="M780 4491 c0 -6 5 -13 10 -16 6 -3 10 1 10 9 0 9 -4 16 -10 16 -5 0
-10 -4 -10 -9z"/>
<path d="M9150 4310 c0 -5 7 -10 16 -10 8 0 12 5 9 10 -3 6 -10 10 -16 10 -5
0 -9 -4 -9 -10z"/>
<path d="M10118 4313 c12 -2 30 -2 40 0 9 3 -1 5 -23 4 -22 0 -30 -2 -17 -4z"/>
<path d="M10180 4308 c0 -10 118 -8 190 2 43 7 29 8 -67 7 -68 -1 -123 -5
-123 -9z"/>
<path d="M10538 4313 c7 -3 16 -2 19 1 4 3 -2 6 -13 5 -11 0 -14 -3 -6 -6z"/>
<path d="M10628 4308 c16 -8 28 -8 45 0 19 9 17 11 -23 11 -40 0 -42 -2 -22
-11z"/>
<path d="M10713 4313 c9 -2 25 -2 35 0 9 3 1 5 -18 5 -19 0 -27 -2 -17 -5z"/>
<path d="M6520 4282 c-14 -14 -47 -51 -73 -80 -57 -64 -52 -85 12 -52 43 22
239 73 326 85 41 6 46 9 29 15 -12 5 -25 13 -29 19 -3 6 -30 11 -58 11 -29 0
-70 5 -92 11 -76 20 -89 19 -115 -9z"/>
<path d="M10378 4293 c12 -2 30 -2 40 0 9 3 -1 5 -23 4 -22 0 -30 -2 -17 -4z"/>
<path d="M11623 4262 c-29 -4 -30 -22 -2 -22 11 0 29 -5 40 -11 23 -12 62 -2
56 14 -2 7 -15 12 -28 13 -14 0 -29 2 -34 5 -6 3 -20 3 -32 1z"/>
<path d="M11419 4239 c-22 -13 30 -21 97 -14 47 6 62 11 55 18 -8 8 -20 8 -39
1 -15 -5 -44 -7 -64 -4 -20 4 -42 3 -49 -1z"/>
<path d="M12263 4213 c9 -2 23 -2 30 0 6 3 -1 5 -18 5 -16 0 -22 -2 -12 -5z"/>
<path d="M12310 4209 c0 -5 5 -7 10 -4 6 3 10 8 10 11 0 2 -4 4 -10 4 -5 0
-10 -5 -10 -11z"/>
<path d="M12554 4204 c-17 -14 -17 -15 -1 -10 10 3 23 6 28 6 5 0 9 5 9 10 0
14 -13 12 -36 -6z"/>
<path d="M12638 4203 c6 -2 18 -2 25 0 6 3 1 5 -13 5 -14 0 -19 -2 -12 -5z"/>
<path d="M11708 4193 c6 -2 18 -2 25 0 6 3 1 5 -13 5 -14 0 -19 -2 -12 -5z"/>
<path d="M11918 4193 c7 -3 16 -2 19 1 4 3 -2 6 -13 5 -11 0 -14 -3 -6 -6z"/>
<path d="M11288 4185 c-2 -2 -43 -6 -91 -8 -49 -3 -92 -8 -95 -12 -4 -5 22 -5
57 -1 35 3 102 6 149 6 47 0 83 2 81 4 -5 4 -97 14 -101 11z"/>
<path d="M11544 4178 c-3 -4 4 -8 15 -8 10 0 28 -3 38 -6 15 -6 16 -4 6 6 -15
16 -51 21 -59 8z"/>
<path d="M11838 4183 c7 -3 16 -2 19 1 4 3 -2 6 -13 5 -11 0 -14 -3 -6 -6z"/>
<path d="M12175 4180 c-18 -7 -19 -8 -2 -15 9 -4 29 -4 45 0 25 7 25 8 7 15
-25 10 -25 10 -50 0z"/>
<path d="M9758 4173 c6 -2 18 -2 25 0 6 3 1 5 -13 5 -14 0 -19 -2 -12 -5z"/>
<path d="M10795 4170 c-14 -6 -4 -9 35 -8 42 0 49 2 30 8 -32 10 -41 10 -65 0z"/>
<path d="M11418 4173 c12 -2 30 -2 40 0 9 3 -1 5 -23 4 -22 0 -30 -2 -17 -4z"/>
<path d="M6640 4153 c0 -8 28 -33 37 -33 4 0 14 -4 22 -9 12 -8 12 -12 2 -25
-16 -19 -9 -20 42 -5 47 13 44 29 -9 44 -21 6 -38 17 -37 23 2 6 -10 10 -27
10 -17 -1 -30 -3 -30 -5z"/>
<path d="M12088 4153 c6 -2 18 -2 25 0 6 3 1 5 -13 5 -14 0 -19 -2 -12 -5z"/>
<path d="M6535 4136 c-108 -32 -141 -49 -163 -87 -18 -31 -19 -38 -7 -43 8 -3
15 -14 15 -24 0 -28 10 -33 36 -16 13 9 56 29 96 44 73 28 93 52 51 58 -38 6
-28 32 12 32 31 0 35 3 35 25 0 28 -10 30 -75 11z m-18 -72 c-3 -3 -12 -4 -19
-1 -8 3 -5 6 6 6 11 1 17 -2 13 -5z"/>
<path d="M8688 4143 c7 -3 16 -2 19 1 4 3 -2 6 -13 5 -11 0 -14 -3 -6 -6z"/>
<path d="M9289 4119 c-10 -6 -7 -9 14 -9 29 0 35 5 14 13 -8 3 -20 1 -28 -4z"/>
<path d="M9410 4120 c0 -5 9 -10 20 -10 11 0 20 5 20 10 0 6 -9 10 -20 10 -11
0 -20 -4 -20 -10z"/>
<path d="M9558 4123 c6 -2 18 -2 25 0 6 3 1 5 -13 5 -14 0 -19 -2 -12 -5z"/>
<path d="M8833 4113 c9 -2 23 -2 30 0 6 3 -1 5 -18 5 -16 0 -22 -2 -12 -5z"/>
<path d="M8970 4110 c36 -4 72 -3 80 1 8 5 -20 8 -65 7 l-80 -1 65 -7z"/>
<path d="M8788 4103 c7 -3 16 -2 19 1 4 3 -2 6 -13 5 -11 0 -14 -3 -6 -6z"/>
<path d="M6640 4086 c0 -9 -7 -16 -16 -16 -8 0 -12 5 -9 10 3 6 2 10 -4 10 -5
0 -9 -9 -8 -20 1 -23 25 -26 51 -7 16 12 16 14 2 26 -14 11 -16 11 -16 -3z"/>
<path d="M9508 4083 c12 -2 30 -2 40 0 9 3 -1 5 -23 4 -22 0 -30 -2 -17 -4z"/>
<path d="M9148 4073 c7 -3 16 -2 19 1 4 3 -2 6 -13 5 -11 0 -14 -3 -6 -6z"/>
<path d="M10198 4043 c7 -3 16 -2 19 1 4 3 -2 6 -13 5 -11 0 -14 -3 -6 -6z"/>
<path d="M11038 4043 c7 -3 16 -2 19 1 4 3 -2 6 -13 5 -11 0 -14 -3 -6 -6z"/>
<path d="M11195 4040 c-22 -4 -30 -8 -18 -9 12 0 28 -4 36 -7 8 -3 17 2 20 10
4 9 5 15 4 15 -1 -1 -20 -5 -42 -9z"/>
<path d="M10563 4033 c20 -2 54 -2 75 0 20 2 3 4 -38 4 -41 0 -58 -2 -37 -4z"/>
<path d="M10720 4030 c0 -5 5 -10 10 -10 6 0 10 5 10 10 0 6 -4 10 -10 10 -5
0 -10 -4 -10 -10z"/>
<path d="M11075 4030 c-3 -5 -25 -10 -48 -11 -23 0 -51 -4 -62 -9 -13 -6 18
-9 87 -9 109 -1 137 7 92 28 -31 14 -61 14 -69 1z"/>
<path d="M11328 4033 c6 -2 18 -2 25 0 6 3 1 5 -13 5 -14 0 -19 -2 -12 -5z"/>
<path d="M11386 4015 c4 -8 12 -15 20 -15 20 0 17 7 -6 20 -16 9 -18 8 -14 -5z"/>
<path d="M10273 4013 c9 -2 25 -2 35 0 9 3 1 5 -18 5 -19 0 -27 -2 -17 -5z"/>
<path d="M10878 4013 c6 -2 18 -2 25 0 6 3 1 5 -13 5 -14 0 -19 -2 -12 -5z"/>
<path d="M11597 4012 c-28 -6 -19 -18 11 -16 15 1 70 3 122 5 52 1 84 3 70 5
-41 5 -185 9 -203 6z"/>
<path d="M6596 4001 c-4 -5 3 -7 14 -4 23 6 26 13 6 13 -8 0 -17 -4 -20 -9z"/>
<path d="M6767 4003 c-4 -3 -3 -11 2 -17 5 -6 11 -20 14 -31 3 -12 5 -4 6 18
1 35 -7 46 -22 30z"/>
<path d="M6933 3986 c-22 -10 -38 -34 -29 -43 2 -3 13 4 24 14 10 10 27 23 38
30 25 15 -2 15 -33 -1z"/>
<path d="M9398 3993 c12 -2 32 -2 45 0 12 2 2 4 -23 4 -25 0 -35 -2 -22 -4z"/>
<path d="M6672 3983 c-15 -6 -6 -23 14 -23 8 0 14 7 14 15 0 15 -6 17 -28 8z"/>
<path d="M6615 3962 c6 -4 16 -18 22 -32 11 -25 11 -24 10 7 -2 26 -6 33 -22
33 -11 0 -15 -4 -10 -8z"/>
<path d="M2332 3813 c-1 -84 1 -153 6 -153 4 0 6 53 4 117 -4 186 -8 201 -10
36z"/>
<path d="M10363 3953 c9 -2 25 -2 35 0 9 3 1 5 -18 5 -19 0 -27 -2 -17 -5z"/>
<path d="M10665 3949 c-29 -4 -32 -7 -13 -8 30 -1 45 -16 26 -24 -8 -4 -7 -6
4 -6 9 -1 19 3 22 8 3 5 17 11 31 13 13 3 22 1 19 -3 -8 -13 169 -16 515 -8
128 3 175 1 178 -8 3 -7 17 -10 39 -6 21 4 34 2 34 -5 0 -6 -6 -9 -14 -6 -8 3
-17 0 -21 -6 -6 -9 3 -11 31 -6 63 9 156 10 203 1 32 -6 42 -5 37 3 -4 7 -1
12 9 12 9 0 13 4 10 10 -3 5 -23 9 -43 9 -65 -1 -157 6 -169 14 -6 4 -14 1
-16 -5 -4 -10 -6 -10 -6 0 -1 6 -12 12 -26 12 -14 0 -25 4 -25 8 0 12 -660 13
-725 3 -27 -5 -52 -6 -55 -2 -3 3 -23 3 -45 0z m202 -15 c-3 -3 -12 -4 -19 -1
-8 3 -5 6 6 6 11 1 17 -2 13 -5z"/>
<path d="M6515 3933 c-17 -9 -25 -18 -17 -20 6 -3 12 -12 12 -20 0 -8 11 -24
26 -35 24 -19 25 -33 2 -33 -15 0 -19 -17 -9 -34 8 -12 14 -13 36 -3 22 10 26
17 20 35 -4 12 -9 36 -11 52 -13 84 -12 83 -59 58z"/>
<path d="M6680 3933 c0 -20 17 -50 24 -43 2 3 2 17 -1 33 -6 30 -23 37 -23 10z"/>
<path d="M11628 3943 c6 -2 18 -2 25 0 6 3 1 5 -13 5 -14 0 -19 -2 -12 -5z"/>
<path d="M2471 3924 c0 -11 3 -14 6 -6 3 7 2 16 -1 19 -3 4 -6 -2 -5 -13z"/>
<path d="M6390 3928 c0 -20 19 -72 25 -67 2 3 -2 23 -10 44 -8 22 -14 32 -15
23z"/>
<path d="M10253 3933 c15 -2 37 -2 50 0 12 2 0 4 -28 4 -27 0 -38 -2 -22 -4z"/>
<path d="M10568 3933 c12 -2 30 -2 40 0 9 3 -1 5 -23 4 -22 0 -30 -2 -17 -4z"/>
<path d="M11698 3933 c7 -3 16 -2 19 1 4 3 -2 6 -13 5 -11 0 -14 -3 -6 -6z"/>
<path d="M11855 3920 l-60 -5 80 -7 c91 -8 125 -7 125 3 0 10 -76 15 -145 9z"/>
<path d="M12098 3913 c17 -2 47 -2 65 0 17 2 3 4 -33 4 -36 0 -50 -2 -32 -4z"/>
<path d="M6910 3896 c0 -7 3 -28 6 -45 5 -25 11 -31 33 -31 21 0 23 2 11 11
-12 9 -11 10 7 6 13 -3 26 -1 29 4 3 5 -8 9 -24 9 -24 0 -32 6 -41 30 -10 32
-21 39 -21 16z"/>
<path d="M9133 3893 c15 -2 39 -2 55 0 15 2 2 4 -28 4 -30 0 -43 -2 -27 -4z"/>
<path d="M2361 3874 c0 -11 3 -14 6 -6 3 7 2 16 -1 19 -3 4 -6 -2 -5 -13z"/>
<path d="M2385 3880 c-3 -5 -1 -10 4 -10 6 0 11 5 11 10 0 6 -2 10 -4 10 -3 0
-8 -4 -11 -10z"/>
<path d="M9675 3880 c-47 -7 -45 -7 23 -7 39 1 72 5 72 9 0 9 -20 8 -95 -2z"/>
<path d="M9821 3886 c2 -2 58 -6 124 -8 66 -3 109 -2 95 2 -24 8 -227 14 -219
6z"/>
<path d="M12085 3880 c-49 -3 -79 -7 -65 -9 46 -4 283 -2 288 4 3 3 -20 5 -51
5 -30 0 -61 1 -69 3 -7 2 -53 0 -103 -3z"/>
<path d="M12325 3880 c4 -6 11 -8 16 -5 14 9 11 15 -7 15 -8 0 -12 -5 -9 -10z"/>
<path d="M2281 3864 c0 -11 3 -14 6 -6 3 7 2 16 -1 19 -3 4 -6 -2 -5 -13z"/>
<path d="M2441 3864 c0 -11 3 -14 6 -6 3 7 2 16 -1 19 -3 4 -6 -2 -5 -13z"/>
<path d="M6700 3856 c0 -22 3 -27 11 -19 8 8 8 16 0 30 -9 16 -10 14 -11 -11z"/>
<path d="M12460 3876 c0 -8 48 -12 66 -5 13 5 7 8 -23 8 -24 1 -43 -1 -43 -3z"/>
<path d="M6662 3840 c0 -14 2 -19 5 -12 2 6 2 18 0 25 -3 6 -5 1 -5 -13z"/>
<path d="M6800 3844 c0 -17 22 -14 28 4 2 7 -3 12 -12 12 -9 0 -16 -7 -16 -16z"/>
<path d="M2283 3780 c0 -36 2 -50 4 -32 2 17 2 47 0 65 -2 17 -4 3 -4 -33z"/>
<path d="M2443 3760 c-1 -47 2 -76 4 -65 3 11 12 24 20 30 16 12 14 52 -2 47
-6 -1 -13 14 -16 35 -4 25 -6 9 -6 -47z"/>
<path d="M10928 3833 c7 -3 16 -2 19 1 4 3 -2 6 -13 5 -11 0 -14 -3 -6 -6z"/>
<path d="M11733 3833 c9 -2 23 -2 30 0 6 3 -1 5 -18 5 -16 0 -22 -2 -12 -5z"/>
<path d="M2413 3770 c0 -36 2 -50 4 -32 2 17 2 47 0 65 -2 17 -4 3 -4 -33z"/>
<path d="M10973 3823 c9 -2 23 -2 30 0 6 3 -1 5 -18 5 -16 0 -22 -2 -12 -5z"/>
<path d="M11858 3823 c6 -2 18 -2 25 0 6 3 1 5 -13 5 -14 0 -19 -2 -12 -5z"/>
<path d="M2488 3689 c-1 -81 -3 -105 -5 -61 -2 43 -8 70 -13 67 -6 -4 -10 -15
-10 -26 0 -10 -4 -19 -9 -19 -6 0 -12 -17 -14 -37 l-4 -38 -1 38 c-1 20 -6 37
-12 37 -5 0 -6 -7 -3 -17 4 -11 3 -14 -5 -9 -7 4 -12 19 -12 34 0 21 3 23 10
12 5 -8 12 -12 15 -9 9 9 -6 40 -16 33 -5 -3 -9 19 -10 48 0 41 -2 48 -9 31
-5 -12 -7 -32 -5 -44 3 -12 1 -27 -3 -33 -4 -6 -10 16 -13 49 -4 41 -6 19 -6
-70 0 -71 3 -143 8 -160 5 -18 6 7 2 64 -4 68 -2 92 6 87 6 -4 12 -33 12 -64
1 -31 3 -48 6 -37 9 36 23 41 23 8 0 -22 5 -32 19 -36 15 -4 21 1 24 22 l4 26
2 -27 c1 -20 5 -25 19 -22 15 5 17 18 14 142 -2 75 -5 138 -7 141 -3 2 -6 -56
-7 -130z"/>
<path d="M2523 3755 c0 -38 2 -53 4 -32 2 20 2 52 0 70 -2 17 -4 1 -4 -38z"/>
<path d="M10268 3813 c7 -3 16 -2 19 1 4 3 -2 6 -13 5 -11 0 -14 -3 -6 -6z"/>
<path d="M10388 3813 c7 -3 16 -2 19 1 4 3 -2 6 -13 5 -11 0 -14 -3 -6 -6z"/>
<path d="M11063 3813 c9 -2 23 -2 30 0 6 3 -1 5 -18 5 -16 0 -22 -2 -12 -5z"/>
<path d="M2305 3789 c-4 -6 -5 -12 -2 -15 2 -3 7 2 10 11 7 17 1 20 -8 4z"/>
<path d="M9343 3783 c9 -2 25 -2 35 0 9 3 1 5 -18 5 -19 0 -27 -2 -17 -5z"/>
<path d="M9438 3783 c7 -3 16 -2 19 1 4 3 -2 6 -13 5 -11 0 -14 -3 -6 -6z"/>
<path d="M11583 3783 c26 -2 67 -2 90 0 23 2 2 3 -48 3 -49 0 -68 -1 -42 -3z"/>
<path d="M2250 3756 c0 -22 3 -27 11 -19 8 8 8 16 0 30 -9 16 -10 14 -11 -11z"/>
<path d="M9763 3753 c9 -2 23 -2 30 0 6 3 -1 5 -18 5 -16 0 -22 -2 -12 -5z"/>
<path d="M2313 3700 c0 -30 2 -43 4 -27 2 15 2 39 0 55 -2 15 -4 2 -4 -28z"/>
<path d="M11910 3741 c-26 -6 -13 -8 55 -9 50 -1 137 -3 195 -5 l105 -4 -90 8
c-173 15 -230 17 -265 10z"/>
<path d="M10358 3713 c7 -3 16 -2 19 1 4 3 -2 6 -13 5 -11 0 -14 -3 -6 -6z"/>
<path d="M11580 3700 c-34 -7 -34 -7 -5 -8 17 0 39 3 50 8 24 10 4 10 -45 0z"/>
<path d="M2257 3693 c-2 -5 -1 -42 3 -83 l7 -75 2 83 c1 76 -2 93 -12 75z"/>
<path d="M11448 3693 c12 -2 32 -2 45 0 12 2 2 4 -23 4 -25 0 -35 -2 -22 -4z"/>
<path d="M2280 3669 c0 -11 5 -17 10 -14 6 3 10 13 10 21 0 8 -4 14 -10 14 -5
0 -10 -9 -10 -21z"/>
<path d="M6880 3675 c-100 -17 -200 -42 -209 -51 -3 -4 10 -4 29 1 19 4 107
20 195 35 108 19 144 28 110 28 -27 0 -84 -6 -125 -13z"/>
<path d="M7135 3677 c30 -13 30 -14 8 -25 -12 -7 -57 -21 -100 -31 -65 -16
-72 -19 -40 -20 40 -1 77 -16 77 -30 0 -4 -46 -11 -102 -14 -131 -8 -400 -57
-315 -57 20 0 21 -4 7 -29 -5 -10 -31 -24 -57 -30 -26 -7 -63 -16 -80 -21 -20
-5 -33 -4 -33 1 0 5 -4 9 -10 9 -5 0 -10 -11 -10 -25 0 -25 -25 -47 -69 -60
-21 -6 -23 -4 -19 13 4 15 2 19 -8 15 -14 -5 -19 -49 -8 -78 6 -14 8 -13 18 7
6 12 22 28 36 35 87 42 115 54 178 72 38 12 116 28 173 36 121 17 313 20 304
5 -3 -5 -27 -10 -53 -10 -83 -1 -362 -47 -362 -60 0 -4 21 -11 48 -15 l47 -7
-111 -28 c-61 -15 -122 -34 -135 -41 -24 -14 -24 -14 14 -19 l38 -5 -35 -19
c-51 -27 -45 -39 7 -16 80 35 371 88 390 71 4 -4 -47 -15 -113 -25 -67 -10
-119 -20 -117 -23 3 -2 53 3 110 12 162 25 181 14 32 -19 -71 -15 -141 -36
-155 -46 -14 -10 -41 -22 -60 -27 -18 -5 -36 -15 -38 -22 -4 -11 2 -12 24 -7
66 17 199 44 202 41 6 -5 -121 -44 -165 -51 -24 -4 -40 -10 -37 -15 2 -4 -10
-13 -28 -18 -27 -9 -21 -9 32 -5 36 4 73 10 82 15 9 5 25 9 35 9 10 0 36 9 58
20 22 11 48 20 60 19 15 0 12 -4 -12 -15 -18 -8 -33 -16 -33 -18 0 -8 76 17
122 40 68 34 93 31 48 -5 l-35 -29 30 -4 c31 -3 44 -33 15 -33 -8 0 -14 5 -13
11 2 12 -104 1 -115 -12 -4 -4 12 -4 36 0 49 7 53 3 15 -18 -17 -9 -22 -16
-13 -17 39 -4 -55 -17 -135 -19 -49 -1 -83 -4 -75 -7 8 -4 20 -13 25 -20 15
-20 196 -12 249 11 43 18 66 20 66 7 0 -10 -99 -46 -153 -56 -53 -9 -48 -38 8
-45 l40 -5 -34 -8 c-18 -4 -61 -8 -95 -9 -46 -1 -51 -2 -21 -5 22 -3 45 -9 51
-14 15 -12 169 8 206 27 17 9 32 13 35 10 9 -9 -60 -46 -129 -68 -38 -12 -68
-26 -68 -30 0 -4 19 -8 42 -8 31 0 39 -3 31 -11 -7 -7 -49 -10 -122 -7 -61 2
-111 2 -111 1 0 -1 14 -9 32 -17 21 -11 59 -16 116 -16 74 0 83 -2 72 -15 -10
-12 -9 -16 5 -21 12 -5 13 -9 5 -14 -24 -15 6 -17 62 -5 47 9 55 9 46 -2 -6
-7 -20 -13 -32 -14 -11 0 -37 -7 -56 -14 l-35 -13 65 -2 65 -2 -57 -13 c-32
-6 -64 -18 -72 -24 -8 -7 -36 -16 -63 -21 -40 -6 -43 -8 -15 -9 29 -1 33 -4
27 -22 -7 -20 -5 -21 26 -15 19 4 66 9 104 12 39 3 94 9 124 14 61 11 87 13
79 5 -3 -3 -49 -12 -103 -20 -54 -8 -111 -21 -126 -29 -16 -8 -43 -18 -61 -21
-25 -6 -28 -9 -15 -16 14 -8 14 -12 0 -40 -16 -33 -50 -51 -80 -43 -14 4 -25
-3 -37 -20 -20 -32 -8 -33 49 -6 22 11 61 19 87 20 26 0 66 7 87 16 62 25 68
12 12 -24 -28 -19 -52 -41 -52 -50 -1 -9 -2 -26 -3 -37 -3 -47 -19 -116 -28
-121 -18 -11 -68 49 -75 89 -4 25 -9 34 -13 26 -9 -16 3 -100 20 -143 15 -41
38 -55 90 -57 38 -1 41 -2 20 -9 -20 -7 -21 -8 -5 -9 11 0 29 6 39 14 11 8 30
15 42 15 42 0 54 47 27 116 -3 8 1 14 8 14 13 0 59 -85 59 -109 0 -9 5 -9 20
-1 11 6 25 8 30 5 15 -10 52 15 46 31 -3 8 -2 14 3 14 15 0 65 112 76 171 2
12 6 22 7 23 29 17 73 30 113 32 57 4 85 25 66 47 -6 8 -10 21 -9 28 2 11 -14
14 -69 15 -40 0 -73 -3 -73 -7 0 -5 -9 -13 -20 -19 -17 -9 -20 -8 -20 14 0 17
8 28 29 37 17 7 32 21 34 31 3 10 14 18 26 18 12 0 21 5 21 10 0 6 -5 10 -12
10 -17 0 2 17 27 24 11 3 0 3 -25 0 -37 -4 -47 -1 -57 15 -11 17 -8 19 28 24
39 5 79 30 79 49 0 4 -16 16 -35 25 -19 9 -32 20 -29 25 3 4 -7 8 -21 8 -15 0
-24 -4 -20 -10 3 -5 -1 -10 -9 -10 -9 0 -16 5 -16 10 0 6 -11 10 -25 10 -14 0
-25 4 -25 9 0 15 18 22 25 11 6 -10 36 -8 85 6 10 2 15 15 15 31 -1 29 -32 50
-99 70 -46 13 -43 31 9 44 53 13 55 35 3 31 -20 -2 -39 1 -43 7 -3 7 2 11 14
11 12 0 21 7 21 15 0 9 -9 15 -24 15 -25 0 -51 22 -39 33 3 4 19 7 34 7 15 0
30 4 34 9 9 15 -24 41 -53 42 -24 0 -25 1 -7 9 22 9 14 13 -25 11 l-25 -1 28
15 c35 20 36 58 1 90 -25 23 -25 25 -7 25 12 0 23 8 26 20 5 18 -4 25 -27 21
-5 -1 -16 1 -25 4 -13 5 -10 11 16 33 31 26 32 28 18 60 -12 27 -19 32 -50 32
-46 0 -45 16 3 30 20 5 43 14 51 19 19 12 6 41 -18 41 -11 0 -28 3 -38 7 -15
6 -13 9 12 14 24 5 19 7 -25 8 -51 2 -53 3 -36 16 11 8 36 15 57 15 32 0 37 3
42 28 8 41 -20 64 -85 69 -51 4 -52 3 -23 -10z m-146 -291 c-2 -2 -17 -6 -34
-10 -22 -5 -26 -4 -15 4 14 9 59 15 49 6z m-129 -40 c0 -2 -7 -7 -16 -10 -8
-3 -12 -2 -9 4 6 10 25 14 25 6z m335 -6 c-3 -5 -11 -10 -16 -10 -6 0 -7 5 -4
10 3 6 11 10 16 10 6 0 7 -4 4 -10z m-75 -19 c0 -6 -4 -13 -10 -16 -5 -3 -10
-1 -10 6 0 8 -12 10 -37 6 -26 -5 -33 -3 -23 3 19 12 80 13 80 1z m-45 -91
c-3 -5 -16 -10 -28 -9 -21 0 -21 1 -2 9 28 12 37 12 30 0z m85 0 c0 -5 -9 -10
-20 -10 -11 0 -20 5 -20 10 0 6 9 10 20 10 11 0 20 -4 20 -10z m89 -34 c21
-25 -9 -31 -32 -7 l-21 21 21 0 c11 0 26 -6 32 -14z m-42 -192 c-3 -3 -12 -4
-19 -1 -8 3 -5 6 6 6 11 1 17 -2 13 -5z m-42 -14 c-3 -5 -14 -10 -23 -10 -15
0 -15 2 -2 10 20 13 33 13 25 0z m70 -10 c3 -5 1 -10 -4 -10 -6 0 -11 5 -11
10 0 6 2 10 4 10 3 0 8 -4 11 -10z m-10 -99 c-6 -5 -21 -12 -35 -15 l-25 -7
25 15 c28 17 50 21 35 7z m-160 -91 c-3 -5 -11 -10 -16 -10 -6 0 -7 5 -4 10 3
6 11 10 16 10 6 0 7 -4 4 -10z m70 -41 c-32 -10 -61 -16 -64 -14 -4 5 7 9 59
24 63 17 67 10 5 -10z m102 5 c-3 -3 -12 -4 -19 -1 -8 3 -5 6 6 6 11 1 17 -2
13 -5z m-70 -60 c-3 -3 -12 -4 -19 -1 -8 3 -5 6 6 6 11 1 17 -2 13 -5z m-40
-10 c-3 -3 -12 -4 -19 -1 -8 3 -5 6 6 6 11 1 17 -2 13 -5z m133 -60 c0 -2 -21
-4 -47 -3 -32 0 -42 3 -29 8 18 7 76 3 76 -5z m80 -4 c0 -5 -4 -10 -10 -10 -5
0 -10 5 -10 10 0 6 5 10 10 10 6 0 10 -4 10 -10z m-93 -76 c-3 -3 -12 -4 -19
-1 -8 3 -5 6 6 6 11 1 17 -2 13 -5z m43 -18 c0 -17 -35 -31 -70 -27 -14 1 -52
-7 -84 -19 -33 -11 -69 -20 -80 -20 -30 1 65 37 133 51 31 6 63 15 71 20 22
12 30 11 30 -5z m187 -42 c-3 -3 -12 -4 -19 -1 -8 3 -5 6 6 6 11 1 17 -2 13
-5z m-207 -25 c0 -11 -4 -17 -10 -14 -5 3 -10 13 -10 21 0 8 5 14 10 14 6 0
10 -9 10 -21z m15 -89 c3 -5 1 -10 -4 -10 -6 0 -11 5 -11 10 0 6 2 10 4 10 3
0 8 -4 11 -10z"/>
<path d="M9728 3683 c6 -2 18 -2 25 0 6 3 1 5 -13 5 -14 0 -19 -2 -12 -5z"/>
<path d="M11298 3673 c6 -2 18 -2 25 0 6 3 1 5 -13 5 -14 0 -19 -2 -12 -5z"/>
<path d="M12080 3659 c25 -4 56 -7 70 -7 23 0 22 1 -5 8 -16 4 -48 8 -70 8
l-40 -1 45 -8z"/>
<path d="M11395 3650 c-19 -8 -19 -9 3 -9 12 -1 22 4 22 9 0 6 -1 10 -2 9 -2
0 -12 -4 -23 -9z"/>
<path d="M11908 3653 c12 -2 30 -2 40 0 9 3 -1 5 -23 4 -22 0 -30 -2 -17 -4z"/>
<path d="M2340 3619 c0 -5 -4 -8 -9 -5 -14 9 -17 -14 -10 -69 3 -27 7 -37 7
-22 1 16 6 25 12 22 6 -4 10 12 10 39 0 25 -2 46 -5 46 -3 0 -5 -5 -5 -11z
m-3 -51 c-3 -8 -6 -5 -6 6 -1 11 2 17 5 13 3 -3 4 -12 1 -19z"/>
<path d="M2288 3608 c-2 -7 -1 -31 3 -53 6 -40 6 -39 8 13 1 51 -3 65 -11 40z"/>
<path d="M6360 3575 c-17 -10 -20 -14 -9 -15 9 0 22 7 29 15 15 18 12 18 -20
0z"/>
<path d="M6354 3488 l-19 -23 25 20 c14 11 27 21 29 22 2 2 0 3 -6 3 -5 0 -18
-10 -29 -22z"/>
<path d="M2461 3491 c-8 -5 -11 -16 -8 -25 10 -25 27 -19 27 9 0 28 0 28 -19
16z"/>
<path d="M2401 3474 c0 -11 3 -14 6 -6 3 7 2 16 -1 19 -3 4 -6 -2 -5 -13z"/>
<path d="M6355 3450 c-10 -11 -14 -20 -8 -20 5 0 18 9 28 20 10 11 14 20 8 20
-5 0 -18 -9 -28 -20z"/>
<path d="M6548 3352 c-26 -9 -50 -21 -55 -26 -5 -5 0 -6 11 -2 10 3 38 11 62
17 25 6 47 15 50 20 8 13 -14 10 -68 -9z"/>
<path d="M9668 3353 c12 -2 32 -2 45 0 12 2 2 4 -23 4 -25 0 -35 -2 -22 -4z"/>
<path d="M2373 3270 c0 -47 2 -66 4 -42 2 23 2 61 0 85 -2 23 -4 4 -4 -43z"/>
<path d="M2403 3305 c0 -27 2 -38 4 -22 2 15 2 37 0 50 -2 12 -4 0 -4 -28z"/>
<path d="M11863 3303 c9 -2 23 -2 30 0 6 3 -1 5 -18 5 -16 0 -22 -2 -12 -5z"/>
<path d="M11943 3303 c15 -2 37 -2 50 0 12 2 0 4 -28 4 -27 0 -38 -2 -22 -4z"/>
<path d="M6615 3235 c-54 -17 -33 -18 30 -1 28 8 41 14 30 14 -11 0 -38 -5
-60 -13z"/>
<path d="M2343 3145 c0 -38 2 -53 4 -32 2 20 2 52 0 70 -2 17 -4 1 -4 -38z"/>
<path d="M6455 3180 c4 -6 11 -8 16 -5 14 9 11 15 -7 15 -8 0 -12 -5 -9 -10z"/>
<path d="M2371 3164 c0 -11 3 -14 6 -6 3 7 2 16 -1 19 -3 4 -6 -2 -5 -13z"/>
<path d="M6918 3123 c7 -3 16 -2 19 1 4 3 -2 6 -13 5 -11 0 -14 -3 -6 -6z"/>
<path d="M5074 3111 c3 -5 15 -7 26 -4 28 7 25 13 -6 13 -14 0 -23 -4 -20 -9z"/>
<path d="M2370 2996 c0 -7 7 -13 15 -13 8 0 15 4 15 8 0 4 -7 9 -15 13 -9 3
-15 0 -15 -8z"/>
<path d="M2420 2977 c0 -10 8 -17 18 -17 9 0 13 4 7 8 -5 4 -13 11 -17 16 -5
5 -8 2 -8 -7z"/>
<path d="M2491 2934 c0 -11 3 -14 6 -6 3 7 2 16 -1 19 -3 4 -6 -2 -5 -13z"/>
<path d="M6540 2881 c0 -5 9 -7 20 -4 11 3 20 7 20 9 0 2 -9 4 -20 4 -11 0
-20 -4 -20 -9z"/>
<path d="M6733 2883 c9 -2 25 -2 35 0 9 3 1 5 -18 5 -19 0 -27 -2 -17 -5z"/>
<path d="M7518 2716 c9 -19 19 -32 21 -31 5 6 -23 65 -31 65 -4 0 0 -15 10
-34z"/>
<path d="M6750 2691 c-21 -6 -17 -8 24 -14 67 -10 102 -9 91 2 -14 12 -86 20
-115 12z"/>
<path d="M10268 2663 c7 -3 16 -2 19 1 4 3 -2 6 -13 5 -11 0 -14 -3 -6 -6z"/>
<path d="M2410 2646 c0 -2 7 -7 16 -10 8 -3 12 -2 9 4 -6 10 -25 14 -25 6z"/>
<path d="M2803 2605 c0 -22 2 -30 4 -17 2 12 2 30 0 40 -3 9 -5 -1 -4 -23z"/>
<path d="M2450 2620 c0 -5 7 -10 15 -10 8 0 15 -5 15 -11 0 -5 4 -8 9 -5 5 4
12 0 14 -6 3 -7 6 -3 6 10 1 13 -3 20 -9 17 -5 -3 -19 -1 -30 5 -13 7 -20 7
-20 0z"/>
<path d="M6595 2600 c-3 -5 -2 -10 4 -10 5 0 13 5 16 10 3 6 2 10 -4 10 -5 0
-13 -4 -16 -10z"/>
<path d="M2662 2580 c0 -14 2 -19 5 -12 2 6 2 18 0 25 -3 6 -5 1 -5 -13z"/>
<path d="M6788 2593 c7 -3 16 -2 19 1 4 3 -2 6 -13 5 -11 0 -14 -3 -6 -6z"/>
<path d="M7550 2579 c7 -11 14 -19 16 -16 7 7 -7 37 -17 37 -6 0 -5 -9 1 -21z"/>
<path d="M6775 2560 c3 -5 16 -10 28 -10 18 0 19 2 7 10 -20 13 -43 13 -35 0z"/>
<path d="M2311 2553 c-1 -7 8 -17 19 -23 14 -7 20 -7 20 0 0 5 -6 10 -14 10
-8 0 -17 6 -19 13 -4 9 -6 9 -6 0z"/>
<path d="M7564 2491 c2 -28 10 -58 16 -68 9 -15 10 -12 6 16 -3 18 -6 49 -6
67 0 19 -5 34 -10 34 -7 0 -9 -19 -6 -49z"/>
<path d="M2373 2475 c0 -38 2 -46 4 -22 2 20 8 37 13 37 5 0 11 -17 13 -37 3
-35 4 -34 5 9 2 37 -1 46 -12 42 -8 -3 -16 2 -19 13 -3 10 -4 -9 -4 -42z"/>
<path d="M2631 2514 c0 -11 3 -14 6 -6 3 7 2 16 -1 19 -3 4 -6 -2 -5 -13z"/>
<path d="M2451 2472 c-1 -36 1 -41 13 -30 8 7 10 15 6 18 -4 3 -10 16 -13 30
-3 16 -5 10 -6 -18z"/>
<path d="M11668 2503 c7 -3 16 -2 19 1 4 3 -2 6 -13 5 -11 0 -14 -3 -6 -6z"/>
<path d="M2692 2465 c0 -16 2 -22 5 -12 2 9 2 23 0 30 -3 6 -5 -1 -5 -18z"/>
<path d="M8698 2443 c6 -2 18 -2 25 0 6 3 1 5 -13 5 -14 0 -19 -2 -12 -5z"/>
<path d="M2492 2426 c7 -8 15 -12 17 -11 5 6 -10 25 -20 25 -5 0 -4 -6 3 -14z"/>
<path d="M2798 2424 c-5 -4 -8 -16 -8 -28 0 -14 3 -17 11 -9 6 6 9 19 7 28 -1
9 -6 13 -10 9z"/>
<path d="M8798 2423 c7 -3 16 -2 19 1 4 3 -2 6 -13 5 -11 0 -14 -3 -6 -6z"/>
<path d="M8838 2413 c6 -2 18 -2 25 0 6 3 1 5 -13 5 -14 0 -19 -2 -12 -5z"/>
<path d="M2367 2380 c-4 -16 -4 -37 -1 -45 4 -8 1 -21 -5 -29 -8 -10 -8 -16 4
-26 13 -11 15 -4 15 59 0 76 -4 89 -13 41z"/>
<path d="M7460 2410 c-10 -26 -5 -72 7 -79 8 -4 15 -12 15 -17 -1 -12 31 -5
40 9 16 25 8 47 -15 47 -15 0 -28 9 -35 23 -6 12 -11 20 -12 17z"/>
<path d="M7586 2385 c-3 -9 -6 -36 -6 -61 0 -53 -39 -145 -71 -168 -16 -11
-19 -16 -8 -16 8 0 28 14 44 30 16 17 36 30 44 30 12 0 13 2 3 9 -15 9 -13 29
5 49 8 9 11 33 7 75 -6 68 -9 76 -18 52z"/>
<path d="M8953 2393 c9 -2 23 -2 30 0 6 3 -1 5 -18 5 -16 0 -22 -2 -12 -5z"/>
<path d="M2452 2330 c0 -36 2 -60 4 -53 3 7 12 9 20 6 10 -4 15 0 14 8 -5 30
2 43 10 19 7 -20 8 -16 9 23 1 44 0 47 -18 37 -26 -13 -29 -13 -34 8 -3 9 -5
-12 -5 -48z"/>
<path d="M2550 2372 c0 -14 9 -18 36 -20 26 -2 35 1 31 10 -2 7 -10 12 -16 10
-7 -1 -21 2 -31 8 -17 9 -20 7 -20 -8z"/>
<path d="M2320 2369 c0 -4 7 -9 15 -13 9 -3 15 0 15 8 0 7 -7 13 -15 13 -8 0
-15 -4 -15 -8z"/>
<path d="M2293 2335 c0 -22 2 -30 4 -17 2 12 2 30 0 40 -3 9 -5 -1 -4 -23z"/>
<path d="M2396 2361 c-4 -7 -5 -15 -2 -18 9 -9 19 4 14 18 -4 11 -6 11 -12 0z"/>
<path d="M2420 2314 c0 -34 4 -53 10 -49 6 3 10 28 10 56 0 27 -4 49 -10 49
-5 0 -10 -25 -10 -56z"/>
<path d="M7417 2359 c7 -7 15 -10 18 -7 3 3 -2 9 -12 12 -14 6 -15 5 -6 -5z"/>
<path d="M8650 2351 c8 -5 47 -14 85 -20 39 -7 81 -15 95 -18 14 -3 23 -3 20
0 -6 6 -186 47 -205 47 -5 0 -3 -4 5 -9z"/>
<path d="M7327 2303 c-13 -45 -13 -48 4 -51 11 -2 19 -10 19 -18 0 -17 12 -18
28 -2 17 17 15 47 -3 54 -9 4 -15 11 -14 18 7 60 -16 60 -34 -1z"/>
<path d="M2397 2316 c-4 -10 -5 -21 -2 -24 9 -9 17 6 13 25 -3 17 -4 17 -11
-1z"/>
<path d="M2685 2290 c3 -5 8 -10 11 -10 2 0 4 5 4 10 0 6 -5 10 -11 10 -5 0
-7 -4 -4 -10z"/>
<path d="M2731 2274 c0 -11 3 -14 6 -6 3 7 2 16 -1 19 -3 4 -6 -2 -5 -13z"/>
<path d="M7506 2271 c-4 -7 -5 -15 -2 -18 9 -9 19 4 14 18 -4 11 -6 11 -12 0z"/>
<path d="M9080 2236 c0 -8 -10 -22 -22 -30 -18 -13 -20 -18 -9 -28 10 -11 15
-9 27 6 13 19 20 66 9 66 -3 0 -5 -6 -5 -14z"/>
<path d="M9712 2235 c-29 -15 -15 -22 60 -29 49 -5 47 -2 -10 10 -13 2 -20 9
-17 14 9 15 -9 17 -33 5z"/>
<path d="M2731 2214 c0 -11 3 -14 6 -6 3 7 2 16 -1 19 -3 4 -6 -2 -5 -13z"/>
<path d="M2693 2175 c0 -22 2 -30 4 -17 2 12 2 30 0 40 -3 9 -5 -1 -4 -23z"/>
<path d="M9208 2193 c6 -2 18 -2 25 0 6 3 1 5 -13 5 -14 0 -19 -2 -12 -5z"/>
<path d="M7290 2170 c0 -16 5 -21 23 -18 12 2 22 10 22 18 0 8 -10 16 -22 18
-18 3 -23 -2 -23 -18z"/>
<path d="M9298 2183 c12 -2 30 -2 40 0 9 3 -1 5 -23 4 -22 0 -30 -2 -17 -4z"/>
<path d="M2731 2144 c0 -11 3 -14 6 -6 3 7 2 16 -1 19 -3 4 -6 -2 -5 -13z"/>
<path d="M9478 2143 c6 -2 18 -2 25 0 6 3 1 5 -13 5 -14 0 -19 -2 -12 -5z"/>
<path d="M6846 2115 c4 -16 9 -33 11 -37 6 -11 41 -10 48 2 3 6 2 10 -4 10 -6
0 -22 12 -36 28 l-26 27 7 -30z"/>
<path d="M2732 2080 c0 -19 2 -27 5 -17 2 9 2 25 0 35 -3 9 -5 1 -5 -18z"/>
<path d="M7050 2094 c-25 -7 -58 -13 -73 -13 -25 -1 -57 -20 -57 -35 0 -2 15
0 33 5 17 5 50 10 73 10 46 1 67 10 70 33 1 9 2 15 1 15 -1 -1 -22 -7 -47 -15z"/>
<path d="M7735 2090 c-3 -5 -1 -10 4 -10 6 0 11 5 11 10 0 6 -2 10 -4 10 -3 0
-8 -4 -11 -10z"/>
<path d="M9368 2033 c12 -2 30 -2 40 0 9 3 -1 5 -23 4 -22 0 -30 -2 -17 -4z"/>
<path d="M2596 2005 c4 -8 13 -15 21 -15 13 0 13 3 3 15 -7 8 -16 15 -21 15
-5 0 -6 -7 -3 -15z"/>
<path d="M7530 1976 c0 -15 28 -42 35 -34 9 8 -5 36 -21 42 -8 3 -14 -1 -14
-8z"/>
<path d="M9838 1973 c6 -2 18 -2 25 0 6 3 1 5 -13 5 -14 0 -19 -2 -12 -5z"/>
<path d="M9918 1963 c12 -2 30 -2 40 0 9 3 -1 5 -23 4 -22 0 -30 -2 -17 -4z"/>
<path d="M2685 1940 c3 -5 8 -10 11 -10 2 0 4 5 4 10 0 6 -5 10 -11 10 -5 0
-7 -4 -4 -10z"/>
<path d="M7553 1904 c-4 -10 0 -22 10 -29 9 -7 14 -15 10 -18 -3 -4 -1 -7 5
-7 13 0 15 14 6 48 -7 26 -22 29 -31 6z"/>
<path d="M2823 1815 c0 -38 2 -53 4 -32 2 20 2 52 0 70 -2 17 -4 1 -4 -38z"/>
<path d="M2641 1853 c-1 -12 4 -25 9 -28 12 -7 12 2 0 30 -8 19 -9 19 -9 -2z"/>
<path d="M7335 1770 c3 -5 16 -10 28 -10 18 0 19 2 7 10 -20 13 -43 13 -35 0z"/>
<path d="M9458 1763 c7 -3 16 -2 19 1 4 3 -2 6 -13 5 -11 0 -14 -3 -6 -6z"/>
<path d="M7588 1754 c-11 -10 11 -34 32 -34 14 0 17 5 12 23 -5 18 -7 19 -10
5 -4 -22 -19 -23 -24 -2 -2 9 -6 12 -10 8z"/>
<path d="M7620 1673 c0 -17 32 -53 46 -53 11 0 14 8 12 28 -2 21 -9 28 -30 30
-16 2 -28 0 -28 -5z"/>
<path d="M4445 1640 c-3 -6 1 -7 9 -4 18 7 21 14 7 14 -6 0 -13 -4 -16 -10z"/>
<path d="M8010 1435 c0 -7 -7 -18 -16 -23 -19 -11 -12 -27 14 -34 15 -4 18 2
19 33 1 22 -2 39 -8 39 -5 0 -9 -7 -9 -15z"/>
<path d="M3230 1124 c0 -41 4 -63 10 -59 6 3 10 14 10 23 1 16 1 16 11 0 18
-31 30 -20 27 25 -2 26 -8 41 -15 40 -6 -2 -15 6 -18 17 -13 40 -25 18 -25
-46z"/>
<path d="M3309 1122 c-4 -39 -3 -47 11 -47 9 0 14 7 12 20 -4 24 -21 44 -23
27z"/>
<path d="M9200 783 c80 -12 165 -22 190 -21 l45 1 -40 7 c-32 5 -36 8 -22 15
11 4 34 3 55 -3 19 -6 42 -8 50 -3 31 17 -27 24 -223 26 l-200 1 145 -23z
m140 7 c11 -7 4 -10 -25 -9 -31 0 -36 2 -20 9 26 11 28 11 45 0z"/>
<path d="M9516 775 c-4 -12 3 -15 29 -15 24 0 35 5 35 15 0 10 -10 15 -29 15
-16 0 -31 -6 -35 -15z"/>
<path d="M5743 733 c9 -2 23 -2 30 0 6 3 -1 5 -18 5 -16 0 -22 -2 -12 -5z"/>
<path d="M8950 710 c-94 -3 -129 -7 -100 -11 42 -5 482 7 525 15 29 5 -256 3
-425 -4z"/>
<path d="M7123 703 c9 -2 23 -2 30 0 6 3 -1 5 -18 5 -16 0 -22 -2 -12 -5z"/>
<path d="M7413 679 c17 -10 199 -31 206 -24 11 11 -11 16 -75 18 -38 1 -73 5
-79 9 -5 3 -23 6 -39 6 -22 0 -25 -3 -13 -9z"/>
<path d="M8958 673 c7 -3 16 -2 19 1 4 3 -2 6 -13 5 -11 0 -14 -3 -6 -6z"/>
<path d="M9010 659 c0 -5 19 -9 42 -9 49 0 47 5 -4 13 -21 3 -38 2 -38 -4z"/>
<path d="M7750 652 c0 -4 17 -6 38 -4 58 5 62 10 10 11 -27 1 -48 -3 -48 -7z"/>
<path d="M7663 643 c9 -2 23 -2 30 0 6 3 -1 5 -18 5 -16 0 -22 -2 -12 -5z"/>
<path d="M8640 640 c8 -5 22 -10 30 -10 13 0 13 1 0 10 -8 5 -22 10 -30 10
-13 0 -13 -1 0 -10z"/>
<path d="M8748 443 c23 -2 61 -2 85 0 23 2 4 4 -43 4 -47 0 -66 -2 -42 -4z"/>
</g>
</svg>
